# This file uses centimeters as units for non-parametric coordinates.

mtllib ROuterWall.mtl
g default
v -1.011341 -0.797164 -1.235720
v -0.278720 -0.797164 -0.340630
v 0.354662 -0.797164 0.433210
v -1.011341 2.562487 -1.235720
v -0.278720 2.562487 -0.340630
v 0.354662 2.562487 0.433210
v -1.011341 5.279257 -1.235720
v -0.278720 5.279257 -0.340630
v 0.354662 5.279257 0.433210
v -1.011341 8.191087 -1.235720
v -0.278720 8.191087 -0.340630
v 0.354662 8.191087 0.433210
v 1.011342 2.562487 1.235720
v 1.011342 -0.797164 1.235720
v 1.011342 5.279257 1.235720
v 1.011342 8.191087 1.235720
vt 0.945624 0.042207
vt 0.974222 0.042207
vt 0.974222 0.125068
vt 0.945624 0.125068
vt 0.920964 0.042207
vt 0.920964 0.125068
vt 0.895510 0.042207
vt 0.895510 0.125068
vt 0.974222 0.191484
vt 0.945624 0.191484
vt 0.920964 0.191484
vt 0.895510 0.191484
vt 0.974222 0.258767
vt 0.945624 0.258767
vt 0.920964 0.258767
vt 0.895510 0.258767
vn 0.773841 0.000000 -0.633380
vn 0.773841 0.000000 -0.633380
vn 0.773841 0.000000 -0.633380
vn 0.773841 0.000000 -0.633380
vn 0.773840 0.000000 -0.633382
vn 0.773840 0.000000 -0.633382
vn 0.773840 0.000000 -0.633382
vn 0.773840 0.000000 -0.633382
vn 0.773919 0.000000 -0.633285
vn 0.773919 0.000000 -0.633285
vn 0.773919 0.000000 -0.633285
vn 0.773919 0.000000 -0.633285
vn 0.773841 0.000000 -0.633380
vn 0.773841 0.000000 -0.633380
vn 0.773841 0.000000 -0.633380
vn 0.773841 0.000000 -0.633380
vn 0.773840 0.000000 -0.633382
vn 0.773840 0.000000 -0.633382
vn 0.773840 0.000000 -0.633382
vn 0.773840 0.000000 -0.633382
vn 0.773918 0.000000 -0.633286
vn 0.773918 0.000000 -0.633286
vn 0.773918 0.000000 -0.633286
vn 0.773918 0.000000 -0.633286
vn 0.773840 0.000000 -0.633381
vn 0.773840 0.000000 -0.633381
vn 0.773840 0.000000 -0.633381
vn 0.773840 0.000000 -0.633381
vn 0.773840 0.000000 -0.633381
vn 0.773840 0.000000 -0.633381
vn 0.773840 0.000000 -0.633381
vn 0.773840 0.000000 -0.633381
vn 0.773919 0.000000 -0.633285
vn 0.773919 0.000000 -0.633285
vn 0.773919 0.000000 -0.633285
vn 0.773919 0.000000 -0.633285
g ROuterWall
usemtl initialShadingGroup
f 2/1/1 1/2/2 4/3/3 5/4/4
f 3/5/5 2/1/6 5/4/7 6/6/8
f 14/7/9 3/5/10 6/6/11 13/8/12
f 5/4/13 4/3/14 7/9/15 8/10/16
f 6/6/17 5/4/18 8/10/19 9/11/20
f 13/8/21 6/6/22 9/11/23 15/12/24
f 8/10/25 7/9/26 10/13/27 11/14/28
f 9/11/29 8/10/30 11/14/31 12/15/32
f 15/12/33 9/11/34 12/15/35 16/16/36
