# This file uses centimeters as units for non-parametric coordinates.

mtllib CeilingJoin.mtl
g default
v -2.007236 8.066121 -1.546268
v -1.007236 8.066121 -1.546268
v -0.007236 8.066121 -1.546268
v 0.992764 8.066121 -1.546268
v 1.992763 8.066121 -1.546268
v -16.579235 8.066117 17.458296
v -17.334694 8.066117 16.534246
v -15.782639 8.066117 15.272868
v -14.230584 8.066117 14.011489
v -12.678529 8.066121 12.750111
v -11.126474 8.066121 11.488731
v -9.574419 8.066121 10.227352
v -8.022365 8.066123 8.965973
v -6.470309 8.066121 7.704594
v -4.946080 8.066123 6.407108
v -4.936668 8.066121 4.953539
v -4.940230 8.066121 3.653549
v -4.943795 8.066121 2.353559
v -4.947359 8.066121 1.053568
v -4.950922 8.066121 -0.246422
v -4.954487 8.066121 -1.546413
v -4.007236 8.066121 -1.546268
v -2.909916 8.066121 -1.546268
v 2.918840 8.066121 -1.546268
v 3.992764 8.066121 -1.546268
v 4.893161 8.066121 -1.545996
v 4.896726 8.066121 -0.246002
v 4.900290 8.066121 1.053986
v 4.903853 8.066121 2.353977
v 4.907418 8.066121 3.653967
v 4.910981 8.066121 4.953957
v 4.914546 8.066121 6.253948
v 4.918109 8.066121 7.553938
v 4.921672 8.066121 8.853929
v 4.925237 8.066121 10.153919
v 4.906092 8.066123 11.641834
v 3.112987 8.066121 13.099116
v 1.560933 8.066121 14.360496
v 0.008878 8.066121 15.621875
v -1.543177 8.066123 16.883253
v -3.095232 8.066121 18.144632
v -4.647287 8.066121 19.406012
v -6.199342 8.066121 20.667389
v -7.751397 8.066117 21.928770
v -9.303452 8.066117 23.190147
v -10.855508 8.066117 24.451527
v -11.512188 8.066117 23.649017
v -12.145570 8.066117 22.875177
v -12.778951 8.066117 22.101337
v -13.412332 8.066117 21.327497
v -14.045712 8.066117 20.553658
v -14.679092 8.066117 19.779816
v -15.312473 8.066117 19.005976
v -15.945856 8.066117 18.232136
v -12.228691 8.066121 13.149980
v -2.953062 8.066121 1.053653
v -2.996215 8.066121 3.653632
v -3.041421 8.066122 6.377524
v -2.855459 8.066123 7.517912
v -3.563294 8.066122 8.097259
v -5.111779 8.066121 9.364658
v -6.659448 8.066123 10.631397
v -8.207116 8.066121 11.898136
v -9.754785 8.066121 13.164875
v -11.241066 8.066121 14.381353
v -12.850129 8.066117 15.698345
v -14.397797 8.066117 16.965084
v -13.130762 8.066117 18.513344
v -11.582696 8.066117 17.247091
v -9.988475 8.066121 15.943087
v -8.486567 8.066121 14.714581
v -6.938499 8.066121 13.448329
v -5.390434 8.066123 12.182076
v -3.842368 8.066121 10.915823
v -2.293695 8.066122 9.649063
v -1.019371 8.066123 8.493475
v -1.016779 8.066122 6.346076
v -1.013518 8.066121 3.653716
v -1.010378 8.066121 1.053735
v 0.999503 8.066121 1.053820
v 1.006238 8.066121 3.653801
v 1.013128 8.066122 6.314548
v 1.021584 8.066123 9.577890
v -1.003343 8.066122 11.226234
v -2.554804 8.066121 12.489169
v -4.105858 8.066123 13.751772
v -5.656912 8.066121 15.014373
v -7.207968 8.066121 16.276972
v -8.728160 8.066121 17.514450
v -10.310077 8.066117 18.802177
v -11.861132 8.066117 20.064775
v 2.936763 8.066123 10.595476
v 2.930402 8.066121 6.284767
v 2.926515 8.066121 3.653883
v 2.922677 8.066121 1.053902
v 0.488382 8.066123 10.011930
v 1.783060 8.066122 11.534793
v 0.262183 8.066122 12.773062
v -1.288963 8.066121 14.035971
v -2.839904 8.066123 15.298711
v -4.390845 8.066121 16.561451
v -5.941785 8.066121 17.824192
v -7.477131 8.066121 19.074238
v -9.043666 8.066117 20.349674
v -10.594604 8.066117 21.612415
vt 0.896865 0.288084
vt 0.923549 0.320689
vt 0.868660 0.365198
vt 0.819771 0.305487
vt 0.874496 0.260778
vt 0.708265 0.396656
vt 0.765090 0.350185
vt 0.813782 0.409706
vt 0.758981 0.454215
vt 0.743109 0.440105
vt 0.601224 0.484277
vt 0.655824 0.439580
vt 0.704212 0.498724
vt 0.649451 0.543232
vt 0.437393 0.618394
vt 0.492036 0.573673
vt 0.539933 0.632249
vt 0.486198 0.678032
vt 0.546596 0.528975
vt 0.594698 0.587741
vt 0.412437 0.638836
vt 0.418999 0.679076
vt 0.417418 0.775190
vt 0.485901 0.729322
vt 0.486039 0.775193
vt 0.415862 0.866932
vt 0.486135 0.821064
vt 0.486227 0.866935
vt 0.414246 0.958672
vt 0.486304 0.912806
vt 0.486389 0.958677
vt 0.452965 0.958672
vt 0.276672 0.958672
vt 0.276451 0.866926
vt 0.347342 0.866929
vt 0.347172 0.958672
vt 0.311911 0.958672
vt 0.276204 0.775184
vt 0.347461 0.775187
vt 0.275911 0.681298
vt 0.347556 0.680185
vt 0.275603 0.566149
vt 0.347643 0.604413
vt 0.294434 0.550833
vt 0.347113 0.507986
vt 0.392619 0.563637
vt 0.401857 0.463422
vt 0.447254 0.518939
vt 0.456586 0.418871
vt 0.501875 0.474258
vt 0.511288 0.374319
vt 0.556479 0.429578
vt 0.566003 0.329768
vt 0.611088 0.384897
vt 0.619634 0.286102
vt 0.664085 0.341549
vt 0.675431 0.240664
vt 0.720355 0.295536
vt 0.730157 0.196113
vt 0.775016 0.250856
vt 0.829693 0.206167
vt 0.784868 0.151557
vt 0.807274 0.178862
vt 0.852102 0.233473
vt 0.382415 0.958672
vt 0.138876 0.866920
vt 0.208617 0.866923
vt 0.208738 0.958672
vt 0.170835 0.958672
vt 0.139049 0.958662
vt 0.138978 0.912791
vt 0.138561 0.775178
vt 0.208442 0.775181
vt 0.138731 0.821049
vt 0.138200 0.683436
vt 0.208238 0.682349
vt 0.138374 0.729307
vt 0.138455 0.493321
vt 0.207992 0.530243
vt 0.138039 0.637565
vt 0.137895 0.591694
vt 0.137763 0.545823
vt 0.248743 0.497098
vt 0.302450 0.453405
vt 0.357226 0.408843
vt 0.411952 0.364286
vt 0.466666 0.319730
vt 0.521354 0.275173
vt 0.575484 0.231064
vt 0.630733 0.186060
vt 0.685445 0.141503
vt 0.740135 0.096946
vt 0.762488 0.124251
vt 0.241380 0.958672
vt 0.201814 0.441900
vt 0.256642 0.397392
vt 0.311451 0.352883
vt 0.366233 0.308374
vt 0.420974 0.263866
vt 0.475699 0.219357
vt 0.530402 0.174849
vt 0.585126 0.130340
vt 0.639884 0.085832
vt 0.694632 0.041323
vt 0.717795 0.069640
vn 0.000000 -1.000000 0.000000
vn 0.000000 -1.000000 0.000000
vn 0.000000 -1.000000 0.000000
vn 0.000000 -1.000000 0.000000
vn 0.000000 -1.000000 0.000000
vn 0.000001 -1.000000 -0.000000
vn 0.000001 -1.000000 -0.000001
vn 0.000001 -1.000000 -0.000001
vn 0.000001 -1.000000 -0.000001
vn 0.000001 -1.000000 -0.000001
vn 0.000000 -1.000000 -0.000000
vn 0.000000 -1.000000 -0.000000
vn 0.000000 -1.000000 0.000000
vn 0.000000 -1.000000 -0.000000
vn 0.000000 -1.000000 -0.000000
vn -0.000000 -1.000000 0.000000
vn -0.000000 -1.000000 0.000000
vn 0.000000 -1.000000 0.000000
vn 0.000000 -1.000000 0.000000
vn 0.000000 -1.000000 -0.000000
vn 0.000000 -1.000000 0.000000
vn -0.000000 -1.000000 0.000001
vn -0.000000 -1.000000 0.000000
vn -0.000000 -1.000000 0.000000
vn -0.000000 -1.000000 0.000000
vn 0.000000 -1.000000 0.000000
vn 0.000000 -1.000000 0.000000
vn 0.000000 -1.000000 0.000000
vn 0.000000 -1.000000 0.000000
vn 0.000000 -1.000000 0.000000
vn 0.000000 -1.000000 0.000000
vn 0.000000 -1.000000 0.000000
vn 0.000000 -1.000000 -0.000000
vn 0.000000 -1.000000 0.000000
vn 0.000000 -1.000000 0.000000
vn 0.000000 -1.000000 -0.000000
vn 0.000000 -1.000000 -0.000000
vn -0.000000 -1.000000 0.000000
vn 0.000000 -1.000000 0.000000
vn -0.000000 -1.000000 0.000000
vn -0.000000 -1.000000 0.000001
vn -0.000000 -1.000000 -0.000000
vn 0.000000 -1.000000 0.000000
vn 0.000000 -1.000000 -0.000001
vn 0.000000 -1.000000 -0.000000
vn 0.000000 -1.000000 -0.000001
vn -0.000000 -1.000000 0.000000
vn -0.000000 -1.000000 0.000000
vn -0.000000 -1.000000 -0.000000
vn -0.000000 -1.000000 -0.000000
vn 0.000000 -1.000000 -0.000000
vn 0.000000 -1.000000 -0.000000
vn 0.000000 -1.000000 0.000000
vn 0.000000 -1.000000 -0.000000
vn 0.000001 -1.000000 -0.000001
vn 0.000001 -1.000000 -0.000001
vn 0.000001 -1.000000 -0.000001
vn 0.000001 -1.000000 -0.000001
vn 0.000000 -1.000000 0.000000
vn 0.000000 -1.000000 0.000000
vn 0.000000 -1.000000 -0.000000
vn 0.000000 -1.000000 0.000000
vn 0.000000 -1.000000 0.000000
vn 0.000000 -1.000000 -0.000000
vn 0.000000 -1.000000 0.000000
vn 0.000000 -1.000000 0.000000
vn 0.000000 -1.000000 0.000000
vn 0.000000 -1.000000 0.000000
vn 0.000000 -1.000000 0.000000
vn 0.000000 -1.000000 0.000000
vn 0.000000 -1.000000 0.000000
vn 0.000000 -1.000000 -0.000000
vn -0.000000 -1.000000 0.000000
vn 0.000000 -1.000000 -0.000000
vn -0.000000 -1.000000 0.000000
vn -0.000000 -1.000000 0.000000
vn 0.000000 -1.000000 -0.000000
vn -0.000000 -1.000000 0.000000
vn -0.000000 -1.000000 0.000000
vn -0.000000 -1.000000 0.000000
vn -0.000000 -1.000000 0.000000
vn -0.000000 -1.000000 0.000000
vn 0.000000 -1.000000 -0.000000
vn 0.000000 -1.000000 -0.000000
vn -0.000000 -1.000000 0.000000
vn -0.000000 -1.000000 -0.000000
vn 0.000000 -1.000000 -0.000000
vn 0.000000 -1.000000 0.000000
vn 0.000001 -1.000000 -0.000000
vn 0.000001 -1.000000 -0.000001
vn 0.000000 -1.000000 -0.000000
vn 0.000000 -1.000000 0.000000
vn 0.000000 -1.000000 0.000000
vn 0.000000 -1.000000 0.000000
vn 0.000000 -1.000000 -0.000000
vn -0.000000 -1.000000 -0.000000
vn -0.000000 -1.000000 0.000000
vn -0.000000 -1.000000 0.000000
vn 0.000000 -1.000000 -0.000000
vn 0.000000 -1.000000 0.000000
vn 0.000001 -1.000000 -0.000000
vn 0.000001 -1.000000 -0.000001
vn 0.000000 -1.000000 -0.000000
vn 0.000000 -1.000000 0.000000
vn 0.000000 -1.000000 0.000000
s 1
g CeilingJoin
usemtl initialShadingGroup
f 6/1/1 7/2/2 8/3/3 67/4/4 54/5/5
f 65/6/6 66/7/7 9/8/8 10/9/9 55/10/10
f 66/7/7 67/4/4 8/3/3 9/8/8
f 63/11/11 64/12/12 11/13/13 12/14/14
f 64/12/12 65/6/6 55/10/10 10/9/9 11/13/13
f 60/15/15 61/16/16 14/17/17 15/18/18
f 62/19/19 63/11/11 12/14/14 13/20/20
f 61/16/16 62/19/19 13/20/20 14/17/17
f 59/21/21 60/15/15 15/18/18
f 58/22/22 59/21/21 15/18/18
f 57/23/23 58/22/22 15/18/18 16/24/24 17/25/25
f 56/26/26 57/23/23 17/25/25 18/27/27 19/28/28
f 23/29/29 56/26/26 19/28/28 20/30/30 21/31/31 22/32/32
f 4/33/33 80/34/34 79/35/35 2/36/36 3/37/37
f 80/34/34 81/38/38 78/39/39 79/35/35
f 81/38/38 82/40/40 77/41/41 78/39/39
f 82/40/40 83/42/42 76/43/43 77/41/41
f 83/42/42 96/44/44 84/45/45 75/46/46 76/43/43
f 84/45/45 85/47/47 74/48/48 75/46/46
f 85/47/47 86/49/49 73/50/50 74/48/48
f 86/49/49 87/51/51 72/52/52 73/50/50
f 87/51/51 88/53/53 71/54/54 72/52/52
f 88/53/53 89/55/55 70/56/56 71/54/54
f 89/55/55 90/57/57 69/58/58 70/56/56
f 90/57/57 91/59/59 68/60/60 69/58/58
f 52/61/61 68/60/60 91/59/59 50/62/62 51/63/63
f 54/5/5 67/4/4 68/60/60 52/61/61 53/64/64
f 69/58/58 68/60/60 67/4/4 66/7/7
f 70/56/56 69/58/58 66/7/7 65/6/6
f 71/54/54 70/56/56 65/6/6 64/12/12
f 72/52/52 71/54/54 64/12/12 63/11/11
f 73/50/50 72/52/52 63/11/11 62/19/19
f 74/48/48 73/50/50 62/19/19 61/16/16
f 75/46/46 74/48/48 61/16/16 60/15/15
f 76/43/43 75/46/46 60/15/15 59/21/21
f 77/41/41 76/43/43 59/21/21 58/22/22
f 78/39/39 77/41/41 58/22/22 57/23/23
f 79/35/35 78/39/39 57/23/23 56/26/26
f 2/36/36 79/35/35 56/26/26 23/29/29 1/65/65
f 28/66/66 95/67/67 24/68/68 25/69/69 26/70/70 27/71/71
f 30/72/72 94/73/73 95/67/67 28/66/66 29/74/74
f 32/75/75 93/76/76 94/73/73 30/72/72 31/77/77
f 36/78/78 92/79/79 93/76/76 32/75/75 33/80/80 34/81/81 35/82/82
f 92/79/79 97/83/83 96/44/44 83/42/42
f 98/84/84 99/85/85 85/47/47 84/45/45
f 99/85/85 100/86/86 86/49/49 85/47/47
f 100/86/86 101/87/87 87/51/51 86/49/49
f 101/87/87 102/88/88 88/53/53 87/51/51
f 102/88/88 103/89/89 89/55/55 88/53/53
f 103/89/89 104/90/90 90/57/57 89/55/55
f 104/90/90 105/91/91 91/59/59 90/57/57
f 50/62/62 91/59/59 105/91/91 48/92/92 49/93/93
f 93/76/76 92/79/79 83/42/42 82/40/40
f 94/73/73 93/76/76 82/40/40 81/38/38
f 95/67/67 94/73/73 81/38/38 80/34/34
f 24/68/68 95/67/67 80/34/34 4/33/33 5/94/94
f 97/83/83 98/84/84 84/45/45 96/44/44
f 37/95/95 97/83/83 92/79/79 36/78/78
f 38/96/96 98/84/84 97/83/83 37/95/95
f 39/97/97 99/85/85 98/84/84 38/96/96
f 40/98/98 100/86/86 99/85/85 39/97/97
f 41/99/99 101/87/87 100/86/86 40/98/98
f 42/100/100 102/88/88 101/87/87 41/99/99
f 43/101/101 103/89/89 102/88/88 42/100/100
f 44/102/102 104/90/90 103/89/89 43/101/101
f 45/103/103 105/91/91 104/90/90 44/102/102
f 48/92/92 105/91/91 45/103/103 46/104/104 47/105/105
