# This file uses centimeters as units for non-parametric coordinates.

mtllib RightWalls.mtl
g default
v -12.878191 -0.797164 21.980087
v -12.145569 -0.797164 22.875177
v -11.512187 -0.797164 23.649017
v -10.855507 -0.797164 24.451527
v -9.303452 -0.766926 23.190147
v -7.751396 -0.683027 21.928770
v -6.199341 -0.564367 20.667389
v -4.647286 -0.437679 19.406012
v -3.095232 -0.331507 18.144632
v -1.543176 -0.269769 16.883253
v 0.008878 -0.260311 15.621874
v 1.560934 -0.260311 14.360495
v 3.112988 -0.260311 13.099115
v 4.906094 -0.244079 11.641833
v 4.925238 -0.260311 10.153917
v 4.921674 -0.260311 8.853928
v 4.918110 -0.260311 7.553937
v 4.914546 -0.260311 6.253947
v 4.910982 -0.260311 4.953957
v 4.907418 -0.260311 3.653967
v 4.903854 -0.260311 2.353977
v 4.900290 -0.260311 1.053986
v 4.896727 -0.260311 -0.246004
v 2.918842 -0.260311 -1.546268
v 3.992765 -0.260311 -1.546268
v 4.893163 -0.260311 -1.545996
v -12.878191 2.562487 21.980087
v -12.145569 2.562487 22.875177
v -11.512187 2.562487 23.649017
v -10.855507 2.562487 24.451527
v -9.303452 2.592725 23.190147
v -7.751396 2.676625 21.928770
v -6.199341 2.795285 20.667389
v -4.647286 2.921972 19.406012
v -3.095232 3.028144 18.144632
v -1.543176 3.089882 16.883253
v 0.008878 3.099341 15.621874
v 1.560934 3.099341 14.360495
v 3.112988 3.099341 13.099115
v 4.906094 3.115573 11.641833
v 4.925238 3.099341 10.153917
v 4.921674 3.099341 8.853928
v 4.918110 3.099341 7.553937
v 4.914546 3.099341 6.253947
v 4.910982 3.099341 4.953957
v 4.907418 3.099341 3.653967
v 4.903854 3.099341 2.353977
v 4.900290 3.099341 1.053986
v 4.896727 3.099341 -0.246004
v 4.893163 3.099341 -1.545996
v 2.918842 3.099341 -1.546268
v 3.992765 3.099341 -1.546268
v -12.878191 5.279257 21.980087
v -12.145569 5.279257 22.875177
v -11.512187 5.279257 23.649017
v -10.855507 5.279257 24.451527
v -9.303452 5.309494 23.190147
v -7.751396 5.393394 21.928770
v -6.199341 5.512055 20.667389
v -4.647286 5.638742 19.406012
v -3.095232 5.744915 18.144632
v -1.543176 5.806652 16.883253
v 0.008878 5.816111 15.621874
v 1.560934 5.816111 14.360495
v 3.112988 5.816111 13.099115
v 4.906094 5.832343 11.641833
v 4.925238 5.816111 10.153917
v 4.921674 5.816111 8.853928
v 4.918110 5.816111 7.553937
v 4.914546 5.816111 6.253947
v 4.910982 5.816111 4.953957
v 4.907418 5.816111 3.653967
v 4.903854 5.816111 2.353977
v 4.900290 5.816111 1.053986
v 4.896727 5.816111 -0.246004
v 4.893163 5.816111 -1.545996
v 2.918842 5.816111 -1.546268
v 3.992765 5.816111 -1.546268
v -12.878191 8.191087 21.980087
v -12.145569 8.191087 22.875177
v -11.512187 8.191087 23.649017
v -10.855507 8.191087 24.451527
v -9.303452 8.191087 23.190147
v -7.751396 8.191088 21.928770
v -6.199341 8.191090 20.667389
v -4.647286 8.191091 19.406012
v -3.095232 8.191092 18.144632
v -1.543176 8.191092 16.883253
v 0.008879 8.191092 15.621874
v 1.560934 8.191092 14.360495
v 3.112988 8.191092 13.099115
v 4.906093 8.191092 11.641833
v 4.925238 8.191092 10.153918
v 4.921673 8.191092 8.853928
v 4.918110 8.191092 7.553937
v 4.914546 8.191092 6.253947
v 4.910982 8.191092 4.953957
v 4.907419 8.191092 3.653967
v 4.903854 8.191092 2.353977
v 4.900290 8.191092 1.053986
v 4.896727 8.191092 -0.246002
v 4.893162 8.191092 -1.545996
v 2.918841 8.191092 -1.546268
v 3.992765 8.191092 -1.546268
vt 0.945624 0.042207
vt 0.974222 0.042207
vt 0.974222 0.125068
vt 0.945624 0.125068
vt 0.920964 0.042207
vt 0.920964 0.125068
vt 0.895510 0.042207
vt 0.895510 0.125068
vt 0.846770 0.042207
vt 0.846770 0.125068
vt 0.798394 0.042207
vt 0.798394 0.125068
vt 0.750226 0.042207
vt 0.750226 0.125068
vt 0.702065 0.042207
vt 0.702065 0.125068
vt 0.653719 0.042207
vt 0.653719 0.125068
vt 0.605021 0.042207
vt 0.605021 0.125068
vt 0.555854 0.042207
vt 0.555854 0.125068
vt 0.506195 0.042207
vt 0.506195 0.125068
vt 0.456123 0.042207
vt 0.456123 0.125068
vt 0.397956 0.042207
vt 0.397956 0.125068
vt 0.360383 0.042207
vt 0.360383 0.125068
vt 0.327524 0.042207
vt 0.327524 0.125068
vt 0.294661 0.042207
vt 0.294661 0.125068
vt 0.261811 0.042207
vt 0.261811 0.125068
vt 0.229017 0.042207
vt 0.229017 0.125068
vt 0.196243 0.042207
vt 0.196243 0.125068
vt 0.163495 0.042207
vt 0.163495 0.125068
vt 0.130807 0.042207
vt 0.130807 0.125068
vt 0.098156 0.042207
vt 0.098156 0.125068
vt 0.065511 0.042207
vt 0.065511 0.125068
vt 0.015919 0.042207
vt 0.042899 0.042207
vt 0.042899 0.125068
vt 0.015919 0.125068
vt 0.974222 0.191484
vt 0.945624 0.191484
vt 0.920964 0.191484
vt 0.895510 0.191484
vt 0.846770 0.191484
vt 0.798394 0.191484
vt 0.750226 0.191484
vt 0.702065 0.191484
vt 0.653719 0.191484
vt 0.605021 0.191484
vt 0.555854 0.191484
vt 0.506195 0.191484
vt 0.456123 0.191484
vt 0.397956 0.191484
vt 0.360383 0.191484
vt 0.327524 0.191484
vt 0.294661 0.191484
vt 0.261811 0.191484
vt 0.229017 0.191484
vt 0.196243 0.191484
vt 0.163495 0.191484
vt 0.130807 0.191484
vt 0.098156 0.191484
vt 0.065511 0.191484
vt 0.042899 0.191484
vt 0.015919 0.191484
vt 0.974222 0.258767
vt 0.945624 0.258767
vt 0.920964 0.258767
vt 0.895510 0.258767
vt 0.846770 0.258767
vt 0.798394 0.258767
vt 0.750226 0.258767
vt 0.702065 0.258767
vt 0.653719 0.258767
vt 0.605021 0.258767
vt 0.555854 0.258767
vt 0.506195 0.258767
vt 0.456123 0.258767
vt 0.397956 0.258767
vt 0.360383 0.258767
vt 0.327524 0.258767
vt 0.294661 0.258767
vt 0.261811 0.258767
vt 0.229017 0.258767
vt 0.196243 0.258767
vt 0.163495 0.258767
vt 0.130807 0.258767
vt 0.098156 0.258767
vt 0.065511 0.258767
vt 0.042899 0.258767
vt 0.015919 0.258767
vn 0.773841 0.000000 -0.633380
vn 0.773841 0.000000 -0.633380
vn 0.773841 0.000000 -0.633380
vn 0.773841 0.000000 -0.633380
vn 0.773840 0.000000 -0.633382
vn 0.773840 0.000000 -0.633382
vn 0.773840 0.000000 -0.633382
vn 0.773840 0.000000 -0.633382
vn 0.773919 0.000000 -0.633285
vn 0.773919 0.000000 -0.633285
vn 0.773919 0.000000 -0.633285
vn 0.773919 0.000000 -0.633285
vn -0.630693 0.000000 -0.776032
vn -0.630693 0.000000 -0.776032
vn -0.630693 0.000000 -0.776032
vn -0.630693 0.000000 -0.776032
vn -0.630693 0.000000 -0.776032
vn -0.630693 0.000000 -0.776032
vn -0.630693 0.000000 -0.776032
vn -0.630693 0.000000 -0.776032
vn -0.630694 0.000000 -0.776032
vn -0.630694 0.000000 -0.776032
vn -0.630694 0.000000 -0.776032
vn -0.630694 0.000000 -0.776032
vn -0.630693 0.000000 -0.776032
vn -0.630693 0.000000 -0.776032
vn -0.630693 0.000000 -0.776032
vn -0.630693 0.000000 -0.776032
vn -0.630694 0.000000 -0.776032
vn -0.630694 0.000000 -0.776032
vn -0.630694 0.000000 -0.776032
vn -0.630694 0.000000 -0.776032
vn -0.630693 0.000000 -0.776032
vn -0.630693 0.000000 -0.776032
vn -0.630693 0.000000 -0.776032
vn -0.630693 0.000000 -0.776032
vn -0.630693 0.000000 -0.776032
vn -0.630693 0.000000 -0.776032
vn -0.630693 0.000000 -0.776032
vn -0.630693 0.000000 -0.776032
vn -0.630694 0.000000 -0.776032
vn -0.630694 0.000000 -0.776032
vn -0.630694 0.000000 -0.776032
vn -0.630694 0.000000 -0.776032
vn -0.630693 0.000000 -0.776032
vn -0.630693 0.000000 -0.776032
vn -0.630693 0.000000 -0.776032
vn -0.630693 0.000000 -0.776032
vn -0.630693 0.000000 -0.776033
vn -0.630693 0.000000 -0.776033
vn -0.630693 0.000000 -0.776033
vn -0.630693 0.000000 -0.776033
vn -0.999917 0.000000 -0.012865
vn -0.999917 0.000000 -0.012865
vn -0.999917 0.000000 -0.012865
vn -0.999917 0.000000 -0.012865
vn -0.999996 0.000000 0.002741
vn -0.999996 0.000000 0.002741
vn -0.999996 0.000000 0.002741
vn -0.999996 0.000000 0.002741
vn -0.999996 0.000000 0.002741
vn -0.999996 0.000000 0.002741
vn -0.999996 0.000000 0.002741
vn -0.999996 0.000000 0.002741
vn -0.999996 0.000000 0.002741
vn -0.999996 0.000000 0.002741
vn -0.999996 0.000000 0.002741
vn -0.999996 0.000000 0.002741
vn -0.999996 0.000000 0.002741
vn -0.999996 0.000000 0.002741
vn -0.999996 0.000000 0.002741
vn -0.999996 0.000000 0.002741
vn -0.999996 0.000000 0.002741
vn -0.999996 0.000000 0.002741
vn -0.999996 0.000000 0.002741
vn -0.999996 0.000000 0.002741
vn -0.999996 0.000000 0.002741
vn -0.999996 0.000000 0.002741
vn -0.999996 0.000000 0.002741
vn -0.999996 0.000000 0.002741
vn -0.999996 0.000000 0.002741
vn -0.999996 0.000000 0.002741
vn -0.999996 0.000000 0.002741
vn -0.999996 0.000000 0.002741
vn -0.999996 0.000000 0.002741
vn -0.999996 0.000000 0.002741
vn -0.999996 0.000000 0.002741
vn -0.999996 0.000000 0.002741
vn -0.999996 0.000000 0.002741
vn -0.999996 0.000000 0.002741
vn -0.999996 0.000000 0.002741
vn -0.999996 0.000000 0.002741
vn 0.000000 0.000000 1.000000
vn 0.000000 0.000000 1.000000
vn 0.000000 0.000000 1.000000
vn 0.000000 0.000000 1.000000
vn -0.000303 0.000000 1.000000
vn -0.000303 0.000000 1.000000
vn -0.000303 0.000000 1.000000
vn -0.000303 0.000000 1.000000
vn 0.773841 0.000000 -0.633380
vn 0.773841 0.000000 -0.633380
vn 0.773841 0.000000 -0.633380
vn 0.773841 0.000000 -0.633380
vn 0.773840 0.000000 -0.633382
vn 0.773840 0.000000 -0.633382
vn 0.773840 0.000000 -0.633382
vn 0.773840 0.000000 -0.633382
vn 0.773918 0.000000 -0.633286
vn 0.773918 0.000000 -0.633286
vn 0.773918 0.000000 -0.633286
vn 0.773918 0.000000 -0.633286
vn -0.630693 0.000000 -0.776033
vn -0.630693 0.000000 -0.776033
vn -0.630693 0.000000 -0.776033
vn -0.630693 0.000000 -0.776033
vn -0.630692 0.000000 -0.776033
vn -0.630692 0.000000 -0.776033
vn -0.630692 0.000000 -0.776033
vn -0.630692 0.000000 -0.776033
vn -0.630694 0.000000 -0.776031
vn -0.630694 0.000000 -0.776031
vn -0.630694 0.000000 -0.776031
vn -0.630694 0.000000 -0.776031
vn -0.630693 0.000000 -0.776033
vn -0.630693 0.000000 -0.776033
vn -0.630693 0.000000 -0.776033
vn -0.630693 0.000000 -0.776033
vn -0.630693 0.000000 -0.776032
vn -0.630693 0.000000 -0.776032
vn -0.630693 0.000000 -0.776032
vn -0.630693 0.000000 -0.776032
vn -0.630693 0.000000 -0.776032
vn -0.630693 0.000000 -0.776032
vn -0.630693 0.000000 -0.776032
vn -0.630693 0.000000 -0.776032
vn -0.630694 0.000000 -0.776032
vn -0.630694 0.000000 -0.776032
vn -0.630694 0.000000 -0.776032
vn -0.630694 0.000000 -0.776032
vn -0.630693 0.000000 -0.776032
vn -0.630693 0.000000 -0.776032
vn -0.630693 0.000000 -0.776032
vn -0.630693 0.000000 -0.776032
vn -0.630693 0.000000 -0.776032
vn -0.630693 0.000000 -0.776032
vn -0.630693 0.000000 -0.776032
vn -0.630693 0.000000 -0.776032
vn -0.630693 0.000000 -0.776033
vn -0.630693 0.000000 -0.776033
vn -0.630693 0.000000 -0.776033
vn -0.630693 0.000000 -0.776033
vn -0.999917 0.000000 -0.012865
vn -0.999917 0.000000 -0.012865
vn -0.999917 0.000000 -0.012865
vn -0.999917 0.000000 -0.012865
vn -0.999996 0.000000 0.002741
vn -0.999996 0.000000 0.002741
vn -0.999996 0.000000 0.002741
vn -0.999996 0.000000 0.002741
vn -0.999996 0.000000 0.002741
vn -0.999996 0.000000 0.002741
vn -0.999996 0.000000 0.002741
vn -0.999996 0.000000 0.002741
vn -0.999996 0.000000 0.002741
vn -0.999996 0.000000 0.002741
vn -0.999996 0.000000 0.002741
vn -0.999996 0.000000 0.002741
vn -0.999996 0.000000 0.002741
vn -0.999996 0.000000 0.002741
vn -0.999996 0.000000 0.002741
vn -0.999996 0.000000 0.002741
vn -0.999996 0.000000 0.002741
vn -0.999996 0.000000 0.002741
vn -0.999996 0.000000 0.002741
vn -0.999996 0.000000 0.002741
vn -0.999996 0.000000 0.002741
vn -0.999996 0.000000 0.002741
vn -0.999996 0.000000 0.002741
vn -0.999996 0.000000 0.002741
vn -0.999996 0.000000 0.002741
vn -0.999996 0.000000 0.002741
vn -0.999996 0.000000 0.002741
vn -0.999996 0.000000 0.002741
vn -0.999996 0.000000 0.002741
vn -0.999996 0.000000 0.002741
vn -0.999996 0.000000 0.002741
vn -0.999996 0.000000 0.002741
vn -0.999996 0.000000 0.002741
vn -0.999996 0.000000 0.002741
vn -0.999996 0.000000 0.002741
vn -0.999996 0.000000 0.002741
vn 0.000000 0.000000 1.000000
vn 0.000000 0.000000 1.000000
vn 0.000000 0.000000 1.000000
vn 0.000000 0.000000 1.000000
vn -0.000303 0.000000 1.000000
vn -0.000303 0.000000 1.000000
vn -0.000303 0.000000 1.000000
vn -0.000303 0.000000 1.000000
vn 0.773840 0.000000 -0.633381
vn 0.773840 0.000000 -0.633381
vn 0.773840 0.000000 -0.633381
vn 0.773840 0.000000 -0.633381
vn 0.773841 0.000000 -0.633381
vn 0.773841 0.000000 -0.633381
vn 0.773841 0.000000 -0.633381
vn 0.773841 0.000000 -0.633381
vn 0.773919 0.000000 -0.633285
vn 0.773919 0.000000 -0.633285
vn 0.773919 0.000000 -0.633285
vn 0.773919 0.000000 -0.633285
vn -0.630694 0.000000 -0.776032
vn -0.630694 0.000000 -0.776032
vn -0.630694 0.000000 -0.776032
vn -0.630694 0.000000 -0.776032
vn -0.630692 0.000000 -0.776033
vn -0.630692 0.000000 -0.776033
vn -0.630692 0.000000 -0.776033
vn -0.630692 0.000000 -0.776033
vn -0.630694 0.000000 -0.776032
vn -0.630694 0.000000 -0.776032
vn -0.630694 0.000000 -0.776032
vn -0.630694 0.000000 -0.776032
vn -0.630693 0.000000 -0.776033
vn -0.630693 0.000000 -0.776033
vn -0.630693 0.000000 -0.776033
vn -0.630693 0.000000 -0.776033
vn -0.630694 0.000000 -0.776032
vn -0.630694 0.000000 -0.776032
vn -0.630694 0.000000 -0.776032
vn -0.630694 0.000000 -0.776032
vn -0.630693 0.000000 -0.776032
vn -0.630693 0.000000 -0.776032
vn -0.630693 0.000000 -0.776032
vn -0.630693 0.000000 -0.776032
vn -0.630693 0.000000 -0.776032
vn -0.630693 0.000000 -0.776032
vn -0.630693 0.000000 -0.776032
vn -0.630693 0.000000 -0.776032
vn -0.630694 0.000000 -0.776032
vn -0.630694 0.000000 -0.776032
vn -0.630694 0.000000 -0.776032
vn -0.630694 0.000000 -0.776032
vn -0.630693 -0.000000 -0.776032
vn -0.630693 -0.000000 -0.776032
vn -0.630693 -0.000000 -0.776032
vn -0.630693 -0.000000 -0.776032
vn -0.630693 -0.000000 -0.776033
vn -0.630693 -0.000000 -0.776033
vn -0.630693 -0.000000 -0.776033
vn -0.630693 -0.000000 -0.776033
vn -0.999917 -0.000000 -0.012866
vn -0.999917 -0.000000 -0.012866
vn -0.999917 -0.000000 -0.012866
vn -0.999917 -0.000000 -0.012866
vn -0.999996 0.000000 0.002742
vn -0.999996 0.000000 0.002742
vn -0.999996 0.000000 0.002742
vn -0.999996 0.000000 0.002742
vn -0.999996 0.000000 0.002741
vn -0.999996 0.000000 0.002741
vn -0.999996 0.000000 0.002741
vn -0.999996 0.000000 0.002741
vn -0.999996 0.000000 0.002741
vn -0.999996 0.000000 0.002741
vn -0.999996 0.000000 0.002741
vn -0.999996 0.000000 0.002741
vn -0.999996 0.000000 0.002742
vn -0.999996 0.000000 0.002742
vn -0.999996 0.000000 0.002742
vn -0.999996 0.000000 0.002742
vn -0.999996 0.000000 0.002741
vn -0.999996 0.000000 0.002741
vn -0.999996 0.000000 0.002741
vn -0.999996 0.000000 0.002741
vn -0.999996 0.000000 0.002742
vn -0.999996 0.000000 0.002742
vn -0.999996 0.000000 0.002742
vn -0.999996 0.000000 0.002742
vn -0.999996 -0.000000 0.002741
vn -0.999996 -0.000000 0.002741
vn -0.999996 -0.000000 0.002741
vn -0.999996 -0.000000 0.002741
vn -0.999996 0.000000 0.002741
vn -0.999996 0.000000 0.002741
vn -0.999996 0.000000 0.002741
vn -0.999996 0.000000 0.002741
vn -0.999996 -0.000000 0.002742
vn -0.999996 -0.000000 0.002742
vn -0.999996 -0.000000 0.002742
vn -0.999996 -0.000000 0.002742
vn 0.000000 0.000000 1.000000
vn 0.000000 0.000000 1.000000
vn 0.000000 0.000000 1.000000
vn 0.000000 0.000000 1.000000
vn -0.000303 -0.000000 1.000000
vn -0.000303 -0.000000 1.000000
vn -0.000303 -0.000000 1.000000
vn -0.000303 -0.000000 1.000000
s off
g RightWalls
usemtl initialShadingGroup
f 2/1/1 1/2/2 27/3/3 28/4/4
f 3/5/5 2/1/6 28/4/7 29/6/8
f 4/7/9 3/5/10 29/6/11 30/8/12
f 5/9/13 4/7/14 30/8/15 31/10/16
f 6/11/17 5/9/18 31/10/19 32/12/20
f 7/13/21 6/11/22 32/12/23 33/14/24
f 8/15/25 7/13/26 33/14/27 34/16/28
f 9/17/29 8/15/30 34/16/31 35/18/32
f 10/19/33 9/17/34 35/18/35 36/20/36
f 11/21/37 10/19/38 36/20/39 37/22/40
f 12/23/41 11/21/42 37/22/43 38/24/44
f 13/25/45 12/23/46 38/24/47 39/26/48
f 14/27/49 13/25/50 39/26/51 40/28/52
f 15/29/53 14/27/54 40/28/55 41/30/56
f 16/31/57 15/29/58 41/30/59 42/32/60
f 17/33/61 16/31/62 42/32/63 43/34/64
f 18/35/65 17/33/66 43/34/67 44/36/68
f 19/37/69 18/35/70 44/36/71 45/38/72
f 20/39/73 19/37/74 45/38/75 46/40/76
f 21/41/77 20/39/78 46/40/79 47/42/80
f 22/43/81 21/41/82 47/42/83 48/44/84
f 23/45/85 22/43/86 48/44/87 49/46/88
f 26/47/89 23/45/90 49/46/91 50/48/92
f 24/49/93 25/50/94 52/51/95 51/52/96
f 25/50/97 26/47/98 50/48/99 52/51/100
f 28/4/101 27/3/102 53/53/103 54/54/104
f 29/6/105 28/4/106 54/54/107 55/55/108
f 30/8/109 29/6/110 55/55/111 56/56/112
f 31/10/113 30/8/114 56/56/115 57/57/116
f 32/12/117 31/10/118 57/57/119 58/58/120
f 33/14/121 32/12/122 58/58/123 59/59/124
f 34/16/125 33/14/126 59/59/127 60/60/128
f 35/18/129 34/16/130 60/60/131 61/61/132
f 36/20/133 35/18/134 61/61/135 62/62/136
f 37/22/137 36/20/138 62/62/139 63/63/140
f 38/24/141 37/22/142 63/63/143 64/64/144
f 39/26/145 38/24/146 64/64/147 65/65/148
f 40/28/149 39/26/150 65/65/151 66/66/152
f 41/30/153 40/28/154 66/66/155 67/67/156
f 42/32/157 41/30/158 67/67/159 68/68/160
f 43/34/161 42/32/162 68/68/163 69/69/164
f 44/36/165 43/34/166 69/69/167 70/70/168
f 45/38/169 44/36/170 70/70/171 71/71/172
f 46/40/173 45/38/174 71/71/175 72/72/176
f 47/42/177 46/40/178 72/72/179 73/73/180
f 48/44/181 47/42/182 73/73/183 74/74/184
f 49/46/185 48/44/186 74/74/187 75/75/188
f 50/48/189 49/46/190 75/75/191 76/76/192
f 51/52/193 52/51/194 78/77/195 77/78/196
f 52/51/197 50/48/198 76/76/199 78/77/200
f 54/54/201 53/53/202 79/79/203 80/80/204
f 55/55/205 54/54/206 80/80/207 81/81/208
f 56/56/209 55/55/210 81/81/211 82/82/212
f 57/57/213 56/56/214 82/82/215 83/83/216
f 58/58/217 57/57/218 83/83/219 84/84/220
f 59/59/221 58/58/222 84/84/223 85/85/224
f 60/60/225 59/59/226 85/85/227 86/86/228
f 61/61/229 60/60/230 86/86/231 87/87/232
f 62/62/233 61/61/234 87/87/235 88/88/236
f 63/63/237 62/62/238 88/88/239 89/89/240
f 64/64/241 63/63/242 89/89/243 90/90/244
f 65/65/245 64/64/246 90/90/247 91/91/248
f 66/66/249 65/65/250 91/91/251 92/92/252
f 67/67/253 66/66/254 92/92/255 93/93/256
f 68/68/257 67/67/258 93/93/259 94/94/260
f 69/69/261 68/68/262 94/94/263 95/95/264
f 70/70/265 69/69/266 95/95/267 96/96/268
f 71/71/269 70/70/270 96/96/271 97/97/272
f 72/72/273 71/71/274 97/97/275 98/98/276
f 73/73/277 72/72/278 98/98/279 99/99/280
f 74/74/281 73/73/282 99/99/283 100/100/284
f 75/75/285 74/74/286 100/100/287 101/101/288
f 76/76/289 75/75/290 101/101/291 102/102/292
f 77/78/293 78/77/294 104/103/295 103/104/296
f 78/77/297 76/76/298 102/102/299 104/103/300
