# This file uses centimeters as units for non-parametric coordinates.

mtllib Islandsmallpointy.mtl
g default
v 3.854161 2.315848 -3.927907
v 3.965916 2.292821 -3.911117
v 4.077853 2.311055 -3.928678
v 3.668119 3.518898 -3.540253
v 4.002956 3.494397 -3.273626
v 4.382995 3.321021 -3.504816
v 3.028122 4.580866 -2.940990
v 3.888427 4.620305 -2.656398
v 4.773638 4.575931 -2.931322
v 2.597770 4.464724 -3.995179
v 3.971974 4.531912 -4.096818
v 5.465118 4.593495 -4.009475
v 3.039745 4.440814 -5.146529
v 3.985795 4.626230 -5.450146
v 4.994532 4.606356 -5.115695
v 3.667575 3.384285 -4.590269
v 4.070167 3.522675 -4.863532
v 4.482702 3.351109 -4.578381
v 3.873420 2.276994 -4.145414
v 3.985978 2.259666 -4.170603
v 4.103435 2.281690 -4.145552
v 3.833794 2.262300 -4.034019
v 3.978859 1.895822 -4.035145
v 4.128397 2.264381 -4.036391
v 5.142504 3.759144 -4.040818
v 2.790009 3.611495 -4.037238
v 3.050243 4.048841 -4.857863
v 2.569828 4.232656 -4.040942
v 3.141270 4.196436 -3.088230
v 3.931728 4.052701 -3.054075
v 4.583383 4.029024 -3.277688
v 5.434831 4.202929 -4.043308
v 4.580685 4.065314 -5.057534
v 4.010809 4.187276 -5.218478
v 3.803054 2.824020 -4.280256
v 3.401721 3.123950 -4.027991
v 3.801073 2.770048 -3.812492
v 3.991839 2.864475 -3.715181
v 4.192129 2.797818 -3.797632
v 4.390132 2.853611 -4.040695
v 4.233220 2.796996 -4.270529
v 4.017566 2.884456 -4.384627
vt 0.254917 0.943558
vt 0.249412 0.958633
vt 0.392851 0.952113
vt 0.140228 0.860490
vt 0.117544 0.893612
vt 0.495586 0.885316
vt 0.050025 0.781924
vt 0.014757 0.851799
vt 0.617453 0.815666
vt 0.132980 0.727524
vt 0.370637 0.539139
vt 0.535672 0.725850
vt 0.232841 0.682856
vt 0.332623 0.670016
vt 0.433441 0.675586
vt 0.263595 0.800648
vt 0.307654 0.784359
vt 0.401156 0.810014
vt 0.284277 0.930579
vt 0.299732 0.929446
vt 0.367814 0.937079
vt 0.270808 0.939095
vt 0.349286 0.984869
vt 0.378636 0.945579
vt 0.486848 0.789266
vt 0.175823 0.784182
vt 0.225508 0.724928
vt 0.146050 0.742178
vt 0.079144 0.803178
vt 0.587245 0.906301
vt 0.559810 0.845156
vt 0.512497 0.751418
vt 0.396088 0.727802
vt 0.316516 0.717160
vt 0.267990 0.866371
vt 0.208512 0.842968
vt 0.208829 0.908079
vt 0.456827 0.933785
vt 0.439601 0.915733
vt 0.421603 0.883772
vt 0.389106 0.878417
vt 0.291653 0.855856
vt 0.334630 0.654056
vt 0.323170 0.673006
vt 0.499036 0.573353
vt 0.428816 0.653495
vt 0.257597 0.492041
vt 0.262300 0.601250
vt 0.470846 0.463375
vt 0.323774 0.415171
vt 0.404151 0.415278
vt 0.363761 0.865768
vt 0.353032 0.937126
vt 0.184648 0.920045
vt 0.529941 0.916544
vt 0.340062 0.716665
vt 0.354646 0.788129
vt 0.071753 0.870185
vt 0.653080 0.896978
vt 0.311272 0.986875
vt 0.397806 0.965126
vn -0.381008 -0.367183 0.848534
vn -0.144270 -0.498745 0.854658
vn -0.010656 -0.478458 0.878046
vn -0.365400 -0.515141 0.775315
vn 0.227002 -0.447941 0.864765
vn 0.258377 -0.468074 0.845073
vn -0.224176 -0.527571 0.819398
vn 0.017958 -0.535292 0.844476
vn 0.031876 -0.550393 0.834297
vn -0.193974 -0.511137 0.837325
vn 0.275380 -0.467410 0.840056
vn 0.232843 -0.561025 0.794377
vn -0.041322 0.996256 -0.075939
vn -0.025382 0.998253 -0.053349
vn -0.046686 0.998873 -0.008602
vn -0.071795 0.996741 -0.036789
vn -0.009684 0.999470 -0.031088
vn -0.017075 0.999825 0.007680
vn -0.064810 0.997481 0.028836
vn -0.106755 0.994249 0.008522
vn -0.024758 0.998535 0.048111
vn -0.198658 -0.526242 -0.826804
vn 0.037132 -0.454580 -0.889932
vn -0.019515 -0.487177 -0.873085
vn -0.246508 -0.521339 -0.816970
vn 0.248914 -0.364178 -0.897450
vn 0.236559 -0.445690 -0.863366
vn -0.286222 -0.526385 -0.800622
vn -0.060550 -0.537731 -0.840940
vn -0.009584 -0.546456 -0.837433
vn -0.317028 -0.421134 -0.849788
vn 0.244845 -0.553061 -0.796351
vn 0.285976 -0.456766 -0.842367
vn -0.623688 -0.371485 -0.687759
vn 0.017436 -0.493955 -0.869313
vn 0.019717 -0.999083 0.038010
vn -0.850392 -0.513036 0.116735
vn 0.636934 -0.395049 -0.662005
vn 0.836019 -0.512507 0.195981
vn -0.014956 -0.416255 0.909125
vn -0.589618 -0.359683 0.723173
vn 0.540288 -0.327548 0.775114
vn 0.800252 -0.596617 0.060375
vn 0.741227 -0.530378 -0.411439
vn 0.712960 -0.514064 -0.476892
vn 0.833070 -0.552955 0.015329
vn 0.702049 -0.506673 0.500410
vn 0.675571 -0.489274 0.551556
vn 0.870084 -0.492729 0.013103
vn 0.750974 -0.427211 -0.503516
vn 0.791235 -0.389523 -0.471401
vn 0.884225 -0.461133 0.074175
vn 0.694408 -0.402808 0.596275
vn 0.723237 -0.398801 0.563814
vn -0.658433 -0.463130 -0.593277
vn -0.745086 -0.658194 0.107831
vn -0.753703 -0.653228 0.072281
vn -0.636079 -0.564922 -0.525611
vn -0.633071 -0.401691 0.661714
vn -0.592423 -0.523955 0.611969
vn -0.778209 -0.403465 -0.481254
vn -0.868782 -0.492287 0.053591
vn -0.970385 -0.225680 0.086153
vn -0.902700 -0.133926 -0.408897
vn -0.724644 -0.443860 0.527143
vn -0.860632 -0.256641 0.439826
vn -0.716505 -0.312585 -0.623628
vn -0.899492 -0.397235 -0.181987
vn -0.709755 -0.319628 0.627762
vn -0.278430 -0.285682 0.916986
vn -0.003884 -0.312293 0.949978
vn 0.244710 -0.315641 0.916781
vn 0.773231 -0.333723 0.539206
vn 0.920582 -0.387372 0.049719
vn 0.842637 -0.346892 -0.411860
vn 0.313630 -0.311146 -0.897120
vn -0.013090 -0.311270 -0.950231
vn -0.321438 -0.279950 -0.904602
s 1
g rockislandpointy
usemtl Rock1:lambert4SG
f 37/37/1 38/54/2 5/5/3 4/4/4
f 38/38/2 39/39/5 6/6/6 5/55/3
f 29/29/7 30/58/8 8/8/9 7/7/10
f 30/30/8 31/31/11 9/9/12 8/59/9
s 2
f 7/50/13 8/51/14 11/11/15 10/47/16
f 8/51/14 9/49/17 12/45/18 11/11/15
f 10/47/16 11/11/15 14/43/19 13/48/20
f 11/11/15 12/45/18 15/46/21 14/43/19
s 3
f 13/13/22 14/44/23 34/34/24 27/27/25
f 14/14/23 15/15/26 33/33/27 34/56/24
f 16/16/28 17/17/29 42/42/30 35/35/31
f 17/57/29 18/18/32 41/41/33 42/52/30
s 4
f 19/19/34 20/20/35 23/60/36 22/22/37
f 20/53/35 21/21/38 24/24/39 23/23/36
f 22/22/37 23/60/36 2/2/40 1/1/41
f 23/23/36 24/24/39 3/3/42 2/61/40
s 5
f 40/40/43 41/41/44 18/18/45 25/25/46
f 39/39/47 40/40/43 25/25/46 6/6/48
f 32/32/49 33/33/50 15/15/51 12/12/52
f 31/31/53 32/32/49 12/12/52 9/9/54
s 6
f 35/35/55 36/36/56 26/26/57 16/16/58
f 36/36/56 37/37/59 4/4/60 26/26/57
f 27/27/61 28/28/62 10/10/63 13/13/64
f 28/28/62 29/29/65 7/7/66 10/10/63
f 16/16/58 26/26/57 28/28/62 27/27/61
f 26/26/57 4/4/60 29/29/65 28/28/62
s 1
f 4/4/4 5/5/3 30/58/8 29/29/7
f 5/55/3 6/6/6 31/31/11 30/30/8
s 5
f 6/6/48 25/25/46 32/32/49 31/31/53
f 25/25/46 18/18/45 33/33/50 32/32/49
s 3
f 34/56/24 33/33/27 18/18/32 17/57/29
f 27/27/25 34/34/24 17/17/29 16/16/28
s 6
f 19/19/67 22/22/68 36/36/56 35/35/55
f 22/22/68 1/1/69 37/37/59 36/36/56
s 1
f 1/1/70 2/2/71 38/54/2 37/37/1
f 2/61/71 3/3/72 39/39/5 38/38/2
s 5
f 3/3/73 24/24/74 40/40/43 39/39/47
f 24/24/74 21/21/75 41/41/44 40/40/43
s 3
f 42/52/30 41/41/33 21/21/76 20/53/77
f 35/35/31 42/42/30 20/20/77 19/19/78
