# This file uses centimeters as units for non-parametric coordinates.

mtllib Level2floor.mtl
g default
v -29.309168 0.066211 23.437210
v -17.892362 0.066211 25.809504
v -29.309158 0.066211 15.940333
v -17.892358 0.066211 16.168907
v 19.833343 0.433928 26.080676
v 18.272123 0.329857 14.044075
v -13.189577 0.066211 4.584178
v 22.498667 0.066210 0.252286
v -30.476356 0.066211 -7.356295
v -24.630403 0.066210 -16.638690
v -4.383168 0.066211 26.581189
v 4.966977 0.066210 26.581195
v -2.992473 0.066211 33.785168
v 4.936671 0.066209 29.246304
v 0.010724 0.066210 37.164107
v 3.539509 0.066209 38.749024
v 6.644378 0.066208 31.234525
v 9.603420 0.066208 39.332131
v 8.814438 0.066207 32.483095
v 11.752015 0.066207 32.834390
v 15.423638 0.066207 39.394127
v 15.281527 0.066205 32.056576
v 20.769718 0.066205 36.524311
v 18.881812 0.066204 29.746735
v 30.375351 0.066204 27.323678
v 26.835690 0.066203 22.591244
v 35.903695 0.066203 22.635985
v 32.648597 0.066202 16.207026
v 25.816106 0.066202 21.596830
v 26.259626 0.393004 16.346440
vt 0.000000 0.000000
vt 1.000000 0.000000
vt 0.000000 1.000000
vt 1.000000 1.000000
vt 0.000000 0.000000
vt 1.000000 0.000000
vt 1.000000 1.000000
vt 0.000000 1.000000
vt 0.000000 0.000000
vt 1.000000 0.000000
vt 1.000000 1.000000
vt 0.000000 1.000000
vt 0.000000 0.000000
vt 1.000000 0.000000
vt 1.000000 1.000000
vt 0.000000 1.000000
vt 0.000000 0.000000
vt 1.000000 0.000000
vt 1.000000 1.000000
vt 0.000000 1.000000
vt 0.000000 0.000000
vt 1.000000 0.000000
vt 1.000000 1.000000
vt 0.000000 1.000000
vt 0.000000 0.000000
vt 1.000000 0.000000
vt 1.000000 1.000000
vt 0.000000 1.000000
vt 0.000000 0.000000
vt 1.000000 0.000000
vt 1.000000 1.000000
vt 0.000000 1.000000
vt 0.000000 0.000000
vt 1.000000 0.000000
vt 1.000000 1.000000
vt 0.000000 1.000000
vt 0.000000 0.000000
vt 1.000000 0.000000
vt 1.000000 1.000000
vt 0.000000 1.000000
vt 0.000000 0.000000
vt 1.000000 0.000000
vt 1.000000 1.000000
vt 0.000000 1.000000
vt 0.000000 0.000000
vt 1.000000 0.000000
vt 1.000000 1.000000
vt 0.000000 1.000000
vt 0.000000 0.000000
vt 1.000000 0.000000
vt 1.000000 1.000000
vt 0.000000 1.000000
vt 0.000000 0.000000
vt 1.000000 0.000000
vt 1.000000 1.000000
vt 0.000000 1.000000
vt 0.000000 0.000000
vt 1.000000 0.000000
vt 1.000000 1.000000
vt 0.000000 1.000000
vn 0.000000 1.000000 0.000000
vn -0.007144 0.999969 -0.003168
vn -0.006136 0.999959 -0.006681
vn 0.000000 1.000000 0.000000
vn -0.008650 0.999955 -0.003856
vn -0.006453 0.999942 -0.008621
vn -0.003225 0.999961 -0.008184
vn -0.002008 0.999985 -0.005097
vn 0.000000 1.000000 -0.000000
vn 0.000000 1.000000 -0.000000
vn -0.004044 0.992790 0.119798
vn -0.003781 0.993701 0.112004
vn 0.000000 1.000000 0.000000
vn 0.000000 1.000000 0.000000
vn 0.000000 1.000000 0.000000
vn 0.000000 1.000000 0.000000
vn 0.000000 1.000000 -0.000000
vn 0.000000 1.000000 -0.000000
vn 0.000000 1.000000 -0.000000
vn 0.000000 1.000000 -0.000000
vn 0.000000 1.000000 -0.000000
vn 0.000000 1.000000 -0.000000
vn 0.000000 1.000000 -0.000000
vn 0.000000 1.000000 -0.000000
vn -0.000000 1.000000 -0.000000
vn 0.005841 0.999956 0.007404
vn -0.000000 1.000000 -0.000000
vn 0.008992 0.999895 0.011398
vn 0.027469 0.999399 0.021162
vn 0.027583 0.999389 0.021449
vn 0.023568 0.999658 0.011356
vn 0.023568 0.999658 0.011356
s 1
g pPlane1 group2
usemtl lambert2SG
f 1/1/1 2/2/2 4/4/3 3/3/4
f 4/5/3 2/6/2 5/7/5 6/8/6
f 4/9/3 6/10/6 8/11/7 7/12/8
f 7/13/8 8/14/7 10/15/9 9/16/10
f 5/17/5 2/18/2 11/19/11 12/20/12
f 12/21/12 11/22/11 13/23/13 14/24/14
f 14/25/14 13/26/13 15/27/15 16/28/16
f 14/29/14 16/30/16 18/31/17 17/32/18
f 17/33/18 18/34/17 20/35/19 19/36/20
f 20/37/19 18/38/17 21/39/21 22/40/22
f 22/41/22 21/42/21 23/43/23 24/44/24
f 24/45/24 23/46/23 25/47/25 26/48/26
f 26/49/26 25/50/25 27/51/27 28/52/28
f 26/53/26 28/54/28 30/55/29 29/56/30
f 29/57/30 30/58/29 6/59/31 5/60/32
