# This file uses centimeters as units for non-parametric coordinates.

mtllib Level_1.mtl
g default
v -6.661511 0.931515 22.219597
v -8.381383 0.931515 -6.141278
v 8.565076 0.931515 -16.831346
v -20.514760 0.931515 -13.302130
v -11.888366 0.931515 -28.724988
v 2.884944 0.931515 -6.155333
v 0.736564 0.931515 22.223343
v 9.963148 0.931516 7.689487
v 6.558770 0.931516 -6.260876
v 6.416282 0.931516 2.628025
v 2.884944 0.931515 4.527286
v -8.386814 0.931515 4.527286
v -8.407532 0.931515 17.900773
v 2.057982 0.931515 17.900765
v 4.610451 0.931516 13.419350
v 9.979323 0.931515 11.662878
v -5.923221 0.931515 22.219597
v -6.095734 0.931515 17.900771
v -6.079254 0.931515 4.527286
v -4.471028 0.931515 -6.141278
v -0.045279 0.931515 22.223343
v 0.717208 0.931515 17.900766
v 0.721194 0.931515 4.527286
v 1.465875 0.931515 -6.155333
v -17.033369 0.931516 -19.309153
v -14.214947 0.931516 -24.339008
v -8.407532 8.972288 17.900773
v -8.386814 8.972288 4.527286
v -6.095734 8.972288 17.900771
v -6.079254 8.972288 4.527286
v -8.381383 8.995796 -6.141278
v -4.447645 8.995796 -6.141278
v -17.033369 8.972288 -19.309153
v -20.514760 8.972288 -13.302130
v 6.416282 8.972289 2.628025
v 4.610451 8.972288 13.419350
v 9.979323 8.972288 11.662878
v 9.963148 8.972288 7.689487
v 6.558770 8.972289 -6.260876
v 2.884944 8.995796 -6.155333
v 2.884944 8.972288 4.527286
v 2.057982 8.972288 17.900765
v -6.661511 8.972288 22.219597
v -5.923221 8.972288 22.219597
v 0.717208 8.972288 17.900766
v -0.045279 8.972288 22.223343
v 0.721194 8.972288 4.527286
v 1.457899 8.995796 -6.155333
v 0.736564 8.972288 22.223343
v -14.214947 8.972288 -24.339008
v 8.565076 8.972288 -16.831346
v -11.888367 8.972288 -28.724988
v 1.465867 0.931515 -7.129608
v -4.471033 0.931515 -7.111552
v -8.863705 0.931515 -7.111549
v -8.863705 8.995796 -7.111549
v -4.447650 8.995796 -7.111552
v 1.457891 8.995796 -7.129608
v 2.969496 8.995796 -7.129606
v 2.936291 0.931515 -7.129606
v -17.879659 0.931515 -19.529799
v -14.864928 0.931515 -24.909992
vt 0.000000 0.000000
vt 0.000000 1.000000
vt 1.000000 0.000000
vt 1.000000 1.000000
vt 0.000000 1.000000
vt 0.503187 0.000000
vt 0.503187 1.000000
vt 1.000000 0.500000
vt 0.751594 1.000000
vt 1.000000 0.750000
vt 0.503187 0.850230
vt 0.000000 0.844949
vt 0.000000 0.253371
vt 0.503187 0.296604
vt 0.762269 0.271474
vt 0.847126 0.192290
vt 0.103013 0.000000
vt 0.103013 0.262222
vt 0.103013 0.846030
vt 0.061397 0.300163
vt 0.103013 1.000000
vt 0.406595 0.000000
vt 0.406595 0.288305
vt 0.406595 0.849216
vt 0.242336 0.072452
vt 0.406595 1.000000
vt 0.459231 1.000000
vt 0.695251 1.000000
vt 0.000000 0.844949
vt 0.000000 0.253371
vt 0.103013 0.262222
vt 0.103013 0.846030
vt 0.000000 0.377431
vt 0.061397 0.300163
vt 0.459231 1.000000
vt 0.000000 1.000000
vt 1.000000 0.750000
vt 0.762269 0.271474
vt 0.847126 0.192290
vt 1.000000 0.500000
vt 0.751594 1.000000
vt 0.503187 1.000000
vt 0.503187 0.850230
vt 0.103013 1.000000
vt 0.000000 1.000000
vt 0.503187 0.296604
vt 0.000000 0.000000
vt 0.103013 0.000000
vt 0.406595 0.288305
vt 0.406595 0.000000
vt 0.406595 0.849216
vt 0.406595 1.000000
vt 0.503187 0.000000
vt 0.242336 0.072452
vt 0.695251 1.000000
vt 0.299907 0.000000
vt 1.000000 0.000000
vt 1.000000 1.000000
vt 0.000000 0.844949
vt 0.000000 0.253371
vt 0.459231 1.000000
vt 0.000000 1.000000
vt 0.762269 0.271474
vt 0.847126 0.192290
vt 1.000000 0.500000
vt 1.000000 0.750000
vt 0.751594 1.000000
vt 0.503187 1.000000
vt 0.000000 1.000000
vt 0.503187 0.296604
vt 0.000000 0.000000
vt 0.103013 0.000000
vt 0.406595 0.000000
vt 0.503187 0.000000
vt 0.695251 1.000000
vt 1.000000 0.000000
vt 1.000000 1.000000
vt 0.259205 0.106999
vt 0.076214 0.326229
vt 0.000000 0.400619
vt 0.000000 0.400619
vt 0.000000 0.400619
vt 0.076214 0.326229
vt 0.259205 0.106999
vt 0.337876 0.000000
vt 0.329569 0.000000
vt 0.329569 0.000000
vt 0.000000 0.377431
vt 0.061397 0.300163
vt 0.076214 0.326229
vt 0.000000 0.400619
vt 0.329569 0.000000
vt 0.259205 0.106999
vt 0.242336 0.072452
vt 0.299907 0.000000
vt 0.000000 0.000000
vt 1.000000 0.000000
vt 1.000000 1.000000
vt 0.000000 1.000000
vn 0.000000 -0.999999 -0.001142
vn -0.000001 -0.999999 -0.000980
vn 0.000000 -1.000000 0.000000
vn 0.000000 -1.000000 -0.000000
vn -0.002036 -0.999998 -0.000693
vn -0.000000 -1.000000 0.000000
vn -0.000000 -1.000000 0.000000
vn 0.000000 -1.000000 0.000000
vn -0.000791 -0.999999 -0.000654
vn -0.002347 -0.999996 -0.001567
vn -0.003604 -0.999993 -0.001228
vn 0.000000 -0.999997 -0.002204
vn -0.000002 -0.999997 -0.002203
vn 0.000000 -1.000000 0.000000
vn 0.000000 -1.000000 0.000000
vn 0.000000 -1.000000 0.000000
vn 0.000000 -1.000000 0.000000
vn 0.000000 -1.000000 0.000000
vn -0.000001 -0.999999 -0.000964
vn -0.000002 -0.999997 -0.002202
vn 0.000000 -1.000000 0.000000
vn 0.000647 -0.999999 0.001043
vn -0.000275 -0.999999 0.001327
vn 0.000000 -1.000000 -0.000000
vn 0.000000 -1.000000 -0.000000
vn 0.000000 1.000000 -0.000000
vn -0.000000 1.000000 -0.000000
vn 0.000000 1.000000 -0.000000
vn 0.000000 1.000000 -0.000000
vn -0.000000 1.000000 0.000000
vn -0.000000 1.000000 0.000000
vn 0.000000 1.000000 0.000000
vn 0.000000 1.000000 0.000000
vn -0.000000 1.000000 -0.000000
vn -0.000000 1.000000 -0.000000
vn -0.000000 1.000000 0.000000
vn -0.000000 1.000000 -0.000000
vn 0.000000 1.000000 -0.000000
vn -0.000000 1.000000 0.000000
vn -0.000000 1.000000 -0.000000
vn 0.000000 1.000000 -0.000000
vn 0.000000 1.000000 -0.000000
vn 0.000000 1.000000 -0.000000
vn -0.000000 1.000000 -0.000000
vn -0.000000 1.000000 -0.000000
vn 0.000000 1.000000 -0.000000
vn 0.000000 1.000000 0.000000
vn -0.000000 1.000000 0.000000
vn -0.000000 1.000000 0.000000
vn 0.000000 1.000000 -0.000000
vn 0.999999 0.000000 0.001549
vn 0.999999 0.000000 0.001549
vn 0.999999 0.000000 0.001549
vn 0.999999 0.000000 0.001549
vn 0.865199 0.000000 0.501429
vn 0.865199 0.000000 0.501429
vn 0.865199 0.000000 0.501429
vn 0.865199 0.000000 0.501429
vn -0.310941 0.000000 -0.950429
vn -0.310941 0.000000 -0.950429
vn -0.310941 0.000000 -0.950429
vn -0.310941 0.000000 -0.950429
vn -0.999992 0.000000 0.004071
vn -0.999992 0.000000 0.004071
vn -0.999992 0.000000 0.004071
vn -0.999992 0.000000 0.004071
vn -0.818940 0.000000 0.573879
vn -0.818940 0.000000 0.573880
vn -0.818940 0.000000 0.573880
vn -0.818940 0.000000 0.573879
vn -0.999872 0.000000 -0.016028
vn -0.999872 0.000000 -0.016028
vn -0.999872 0.000000 -0.016028
vn -0.999872 0.000000 -0.016028
vn 0.028717 0.000000 0.999588
vn 0.028717 0.000000 0.999588
vn 0.028717 0.000000 0.999588
vn 0.028717 0.000000 0.999588
vn 1.000000 0.000000 0.000509
vn 1.000000 0.000000 0.000509
vn 1.000000 0.000000 0.000509
vn 1.000000 0.000000 0.000509
vn -0.868939 0.000000 -0.494919
vn -0.868939 0.000000 -0.494920
vn -0.868939 0.000000 -0.494920
vn -0.868939 0.000000 -0.494920
vn 0.927102 0.000000 -0.374810
vn 0.927102 0.000000 -0.374810
vn 0.927102 0.000000 -0.374810
vn 0.927102 0.000000 -0.374810
vn 0.000000 0.000000 -1.000000
vn 0.000000 0.000000 -1.000000
vn 0.000000 0.000000 -1.000000
vn 0.000000 0.000000 -1.000000
vn 0.000000 0.000000 -1.000000
vn 0.000000 0.000000 -1.000000
vn 0.000000 0.000000 -1.000000
vn 0.000000 0.000000 -1.000000
vn -0.956313 0.000000 -0.292346
vn -0.956313 0.000000 -0.292346
vn -0.956313 0.000000 -0.292346
vn -0.956313 0.000000 -0.292346
vn -0.502687 -0.000000 0.864469
vn -0.502687 -0.000000 0.864469
vn -0.502687 -0.000000 0.864469
vn -0.502687 -0.000000 0.864469
vn 0.883405 0.000000 0.468610
vn 0.883405 0.000000 0.468610
vn 0.883405 0.000000 0.468610
vn 0.883405 0.000000 0.468610
vn -0.000000 1.000000 0.000000
vn 0.000000 1.000000 -0.000000
vn -0.000000 1.000000 0.000000
vn -0.000000 1.000000 0.000000
vn 0.469212 0.000000 -0.883086
vn 0.469212 0.000000 -0.883086
vn 0.469212 0.000000 -0.883086
vn 0.469212 0.000000 -0.883086
vn 0.000971 -0.999999 0.001277
vn 0.000971 -0.999999 0.001277
vn 0.000725 -0.999999 0.001114
vn -0.000185 -0.999999 0.001313
vn -0.000434 -0.999999 0.001405
vn -0.000434 -0.999999 0.001405
vn -0.000434 -0.999999 0.001405
vn -0.865602 0.001785 -0.500729
vn -0.865602 0.001785 -0.500729
vn -0.865602 0.001785 -0.500729
vn -0.865602 0.001785 -0.500729
vn 0.000000 1.000000 -0.000000
vn 0.000000 1.000000 -0.000000
vn 0.000000 1.000000 -0.000000
vn 0.000000 0.000000 1.000000
vn 0.000000 0.000000 1.000000
vn 0.000000 0.000000 1.000000
vn 0.000000 0.000000 1.000000
vn -0.000001 0.000000 -1.000000
vn -0.000001 0.000000 -1.000000
vn -0.000001 0.000000 -1.000000
vn -0.000001 0.000000 -1.000000
vn 0.000002 -0.000000 -1.000000
vn 0.000002 -0.000000 -1.000000
vn 0.000002 -0.000000 -1.000000
vn 0.000002 -0.000000 -1.000000
vn 0.000000 0.000000 1.000000
vn 0.000000 0.000000 1.000000
vn 0.000000 0.000000 1.000000
vn 0.000000 0.000000 1.000000
vn -0.000000 1.000000 -0.000000
vn -0.000000 1.000000 -0.000000
s 1
g Room
usemtl initialShadingGroup
f 28/59/1 30/19/2 29/18/3 27/60/4
f 35/66/5 38/65/6 37/64/7 36/63/8
f 35/66/5 41/11/9 40/68/10 39/67/11
f 28/59/1 31/69/12 32/21/13 30/19/2
f 41/11/9 35/66/5 36/63/8 42/70/14
f 29/18/3 44/72/15 43/71/16 27/60/4
f 45/23/17 46/73/18 44/72/15 29/18/3
f 30/19/2 47/24/19 45/23/17 29/18/3
f 32/21/13 48/26/20 47/24/19 30/19/2
f 42/70/14 49/74/21 46/73/18 45/23/17
f 47/24/19 41/11/9 42/70/14 45/23/17
f 48/26/20 40/68/10 41/11/9 47/24/19
s 3
f 57/83/22 58/84/23 48/25/24 32/20/25
s 4
f 12/29/26 13/30/27 18/31/28 19/32/29
f 10/37/30 15/38/31 16/39/32 8/40/33
f 10/37/30 9/41/34 6/42/35 11/43/36
f 12/29/26 19/32/29 20/44/37 2/45/38
f 11/43/36 14/46/39 15/38/31 10/37/30
f 18/31/28 13/30/27 1/47/40 17/48/41
f 22/49/42 18/31/28 17/48/41 21/50/43
f 19/32/29 18/31/28 22/49/42 23/51/44
f 20/44/37 19/32/29 23/51/44 24/52/45
f 14/46/39 22/49/42 21/50/43 7/53/46
f 23/51/44 22/49/42 14/46/39 11/43/36
f 24/52/45 23/51/44 11/43/36 6/42/35
s 7
f 54/79/47 20/34/48 24/54/49 53/78/50
s off
f 12/12/51 28/59/52 27/60/53 13/13/54
f 25/27/55 33/61/56 34/62/57 4/5/58
f 15/15/59 36/63/60 37/64/61 16/16/62
f 16/16/63 37/64/64 38/65/65 8/8/66
f 8/8/67 38/65/68 35/66/69 10/10/70
f 10/10/71 35/66/72 39/67/73 9/9/74
f 9/9/75 39/67/76 40/68/77 6/7/78
f 2/2/79 31/69/80 28/59/81 12/12/82
f 14/14/83 42/70/84 36/63/85 15/15/86
f 13/13/87 27/60/88 43/71/89 1/1/90
f 1/1/91 43/71/92 44/72/93 17/17/94
f 21/22/95 46/73/96 49/74/97 7/6/98
f 7/6/99 49/74/100 42/70/101 14/14/102
f 3/3/103 51/76/104 52/77/105 5/4/106
f 5/4/107 52/77/108 50/75/109 26/28/110
s 7
f 25/35/111 54/79/47 53/78/50 26/55/112
f 55/81/113 54/79/47 25/35/111 4/36/114
s off
f 4/5/115 34/62/116 56/82/117 55/80/118
s 3
f 57/83/22 56/82/119 34/62/120 33/61/121
f 33/61/121 50/75/122 58/84/23 57/83/22
f 50/75/122 52/77/123 51/76/124 59/85/125 58/84/23
s off
f 60/87/126 59/85/127 51/76/128 3/3/129
s 7
f 26/55/112 53/78/50 60/86/130 3/57/131 5/58/132
s off
f 2/33/133 20/34/134 32/89/135 31/88/136
f 54/79/137 55/81/138 56/91/139 57/90/140
f 60/86/141 53/78/142 58/93/143 59/92/144
f 24/54/145 6/56/146 40/95/147 48/94/148
s 7
f 25/96/111 26/97/112 62/98/149 61/99/150
