# This file uses centimeters as units for non-parametric coordinates.

mtllib Level2.mtl
g default
v -29.660624 8.114819 23.782022
v -17.824856 8.114774 26.588697
v -29.660561 8.114819 15.528632
v -18.216703 8.114751 15.492914
v -5.700406 8.055425 27.177128
v 19.678616 8.482420 26.610277
v 4.776965 8.061561 27.673473
v -4.275421 8.116784 34.038403
v 4.936671 8.114817 29.331291
v -1.066649 8.116784 37.648636
v 2.703692 8.116783 39.342037
v 9.182675 8.116781 40.698406
v 6.644378 8.114816 31.319521
v 8.814438 8.114815 32.568081
v 11.752015 8.114815 32.919376
v 15.401281 8.116780 40.031300
v 15.281527 8.114814 32.141563
v 21.113317 8.116778 36.965034
v 18.881811 8.114812 29.831722
v 31.376513 8.116777 27.134615
v 26.875813 8.114164 22.727102
v 37.283241 8.116776 22.126049
v 32.698761 8.113799 15.696119
v 26.359598 8.438656 15.867800
v 25.746328 8.111803 22.200809
v 19.145964 8.378443 13.457958
v 23.511360 8.114679 -0.216007
v -13.628760 8.114761 4.825915
v -25.048065 8.114818 -17.450537
v -31.168970 8.114819 -7.222173
vt 0.000193 0.283883
vt 0.174441 0.232521
vt 0.177517 0.398301
vt 0.006825 0.406964
vt 0.733482 0.202081
vt 0.736353 0.398593
vt 0.812425 0.599054
vt 0.254512 0.553681
vt 0.102085 0.895053
vt 0.002602 0.747422
vt 0.354662 0.213610
vt 0.510436 0.197667
vt 0.370393 0.110074
vt 0.511546 0.172798
vt 0.415369 0.053623
vt 0.470273 0.025336
vt 0.565856 -0.000055
vt 0.535455 0.141804
vt 0.610412 0.113906
vt 0.566848 0.121469
vt 0.659136 0.004934
vt 0.663714 0.122708
vt 0.746778 0.046056
vt 0.719282 0.154241
vt 0.907780 0.184313
vt 0.844269 0.253722
vt 0.999974 0.254127
vt 0.936923 0.353789
vt 0.842141 0.356648
vt 0.827840 0.262568
vn -0.000005 -1.000000 0.000001
vn -0.000005 -1.000000 0.000001
vn 0.006099 -0.999961 0.006463
vn 0.007116 -0.999970 0.002984
vn 0.006099 -0.999961 0.006463
vn 0.006466 -0.999942 0.008655
vn 0.008544 -0.999958 0.003370
vn 0.007116 -0.999970 0.002984
vn 0.006099 -0.999961 0.006463
vn 0.001906 -0.999985 0.005068
vn 0.003054 -0.999962 0.008117
vn 0.006466 -0.999942 0.008655
vn -0.001906 0.999985 -0.005068
vn 0.000002 1.000000 0.000001
vn 0.000002 1.000000 0.000001
vn -0.003054 0.999962 -0.008117
vn 0.008544 -0.999958 0.003370
vn 0.006414 -0.993393 -0.114583
vn 0.006972 -0.990760 -0.135446
vn 0.007116 -0.999970 0.002984
vn 0.006414 -0.993393 -0.114583
vn 0.001519 -0.999975 0.006885
vn 0.001396 -0.999979 0.006398
vn 0.006972 -0.990760 -0.135446
vn 0.001519 -0.999975 0.006885
vn -0.000100 -1.000000 0.000178
vn -0.000116 -1.000000 0.000153
vn 0.001396 -0.999979 0.006398
vn 0.001519 -0.999975 0.006885
vn -0.000083 -1.000000 0.000210
vn -0.000030 -1.000000 0.000232
vn -0.000100 -1.000000 0.000178
vn -0.000083 -1.000000 0.000210
vn -0.000077 -1.000000 0.000245
vn 0.000008 -1.000000 0.000254
vn -0.000030 -1.000000 0.000232
vn 0.000008 -1.000000 0.000254
vn 0.000099 -1.000000 0.000247
vn 0.000078 -1.000000 0.000250
vn -0.000030 -1.000000 0.000232
vn 0.000099 -1.000000 0.000247
vn 0.000198 -1.000000 0.000264
vn 0.000183 -1.000000 0.000258
vn 0.000078 -1.000000 0.000250
vn 0.000198 -1.000000 0.000264
vn -0.006702 -0.999952 -0.007193
vn 0.000239 -1.000000 0.000280
vn 0.000183 -1.000000 0.000258
vn -0.006702 -0.999952 -0.007193
vn -0.008799 -0.999916 -0.009468
vn 0.000268 -1.000000 0.000291
vn 0.000239 -1.000000 0.000280
vn -0.006702 -0.999952 -0.007193
vn -0.029047 -0.999385 -0.019621
vn -0.029419 -0.999359 -0.020384
vn -0.008799 -0.999916 -0.009468
vn -0.029047 -0.999385 -0.019621
vn -0.025100 -0.999618 -0.011537
vn -0.025100 -0.999618 -0.011537
vn -0.029419 -0.999359 -0.020384
s off
g Celling
usemtl initialShadingGroup
f 1/1/1 3/4/2 4/3/3 2/2/4
f 4/3/5 26/6/6 6/5/7 2/2/8
f 4/3/9 28/8/10 27/7/11 26/6/12
f 28/8/13 30/10/14 29/9/15 27/7/16
f 6/5/17 7/12/18 5/11/19 2/2/20
f 7/12/21 9/14/22 8/13/23 5/11/24
f 9/14/25 11/16/26 10/15/27 8/13/28
f 9/14/29 13/18/30 12/17/31 11/16/32
f 13/18/33 14/20/34 15/19/35 12/17/36
f 15/19/37 17/22/38 16/21/39 12/17/40
f 17/22/41 19/24/42 18/23/43 16/21/44
f 19/24/45 21/26/46 20/25/47 18/23/48
f 21/26/49 23/28/50 22/27/51 20/25/52
f 21/26/53 25/30/54 24/29/55 23/28/56
f 25/30/57 6/5/58 26/6/59 24/29/60
g default
v -4.043976 -0.949466 -0.135594
v -2.849972 -0.949466 -0.907762
v -4.043976 9.868922 -0.135594
v -2.849972 9.868922 -0.907762
v -4.816144 9.868922 -1.329599
v -3.622139 9.868922 -2.101766
v -4.816144 -0.949466 -1.329599
v -3.622139 -0.949466 -2.101766
vt 0.593338 0.730882
vt 0.633481 0.730882
vt 0.633481 0.987238
vt 0.593338 0.987238
vt 0.713766 0.987237
vt 0.673623 0.987237
vt 0.673623 0.730882
vt 0.713766 0.730881
vt 0.753908 0.730881
vt 0.753908 0.987237
vn 0.543042 0.000000 0.839706
vn 0.543042 0.000000 0.839706
vn 0.543042 0.000000 0.839706
vn 0.543042 0.000000 0.839706
vn -0.543041 0.000000 -0.839706
vn -0.543041 0.000000 -0.839706
vn -0.543041 0.000000 -0.839706
vn -0.543041 0.000000 -0.839706
vn 0.839706 0.000000 -0.543041
vn 0.839706 0.000000 -0.543041
vn 0.839706 0.000000 -0.543041
vn 0.839706 0.000000 -0.543041
vn -0.839706 0.000000 0.543041
vn -0.839706 0.000000 0.543041
vn -0.839706 0.000000 0.543041
vn -0.839706 0.000000 0.543041
s off
g Wall6 Walls
usemtl initialShadingGroup
f 31/31/61 32/32/62 34/33/63 33/34/64
f 35/35/65 36/36/66 38/37/67 37/38/68
f 32/32/69 38/37/70 36/36/71 34/33/72
f 37/38/73 31/39/74 33/40/75 35/35/76
g default
v -4.120246 -0.167909 10.411954
v -2.602484 -0.167909 10.337750
v -4.120246 9.469351 10.411954
v -2.602484 9.469351 10.337750
v -4.167239 9.469351 9.450759
v -2.649477 9.469351 9.376555
v -4.167239 -0.167909 9.450759
v -2.649477 -0.167909 9.376555
vt 0.858288 0.712879
vt 0.899934 0.712879
vt 0.899934 0.993661
vt 0.858289 0.993661
vt 0.816643 0.993661
vt 0.774997 0.993661
vt 0.774997 0.712879
vt 0.816643 0.712879
vt 0.941580 0.712879
vt 0.941580 0.993661
vn 0.048832 0.000000 0.998807
vn 0.048832 0.000000 0.998807
vn 0.048832 0.000000 0.998807
vn 0.048832 0.000000 0.998807
vn -0.048832 0.000000 -0.998807
vn -0.048832 0.000000 -0.998807
vn -0.048832 0.000000 -0.998807
vn -0.048832 0.000000 -0.998807
vn 0.998807 0.000000 -0.048832
vn 0.998807 0.000000 -0.048832
vn 0.998807 0.000000 -0.048832
vn 0.998807 0.000000 -0.048832
vn -0.998807 0.000000 0.048832
vn -0.998807 0.000000 0.048832
vn -0.998807 0.000000 0.048832
vn -0.998807 0.000000 0.048832
s off
g Walls Wall5
usemtl initialShadingGroup
f 39/41/77 40/42/78 42/43/79 41/44/80
f 43/45/81 44/46/82 46/47/83 45/48/84
f 40/42/85 46/49/86 44/50/87 42/43/88
f 45/48/89 39/41/90 41/44/91 43/45/92
g default
v 7.675807 -0.949466 10.575697
v 8.136603 -0.949466 10.292126
v 7.675807 9.868922 10.575697
v 8.136603 9.868922 10.292126
v 7.093134 9.868922 9.674709
v 7.540772 9.868922 9.370791
v 7.093134 -0.949466 9.674709
v 7.540772 -0.949466 9.370791
vt 0.873606 0.365730
vt 0.893830 0.365730
vt 0.893830 0.651073
vt 0.873606 0.651073
vt 0.945300 0.651073
vt 0.925076 0.651073
vt 0.925076 0.365730
vt 0.945300 0.365730
vt 0.843050 0.365730
vt 0.843050 0.651073
vn 0.524104 0.000000 0.851655
vn 0.524104 0.000000 0.851655
vn 0.524104 0.000000 0.851655
vn 0.524104 0.000000 0.851655
vn -0.561708 0.000000 -0.827336
vn -0.561708 0.000000 -0.827336
vn -0.561708 0.000000 -0.827336
vn -0.561708 0.000000 -0.827336
vn 0.839706 0.000000 -0.543041
vn 0.839706 0.000000 -0.543041
vn 0.839706 0.000000 -0.543041
vn 0.839706 0.000000 -0.543041
vn -0.839706 0.000000 0.543041
vn -0.839706 0.000000 0.543041
vn -0.839706 0.000000 0.543041
vn -0.839706 0.000000 0.543041
s off
g Walls Wall7
usemtl initialShadingGroup
f 47/51/93 48/52/94 50/53/95 49/54/96
f 51/55/97 52/56/98 54/57/99 53/58/100
f 48/52/101 54/57/102 52/56/103 50/53/104
f 53/59/105 47/51/106 49/54/107 51/60/108
g default
v 19.848860 9.011924 26.103365
v 4.814520 8.559343 25.654387
v 4.936670 8.616613 29.246304
v 6.644377 8.616612 31.234535
v 11.752014 8.616611 32.834389
v 8.814438 8.616611 32.483093
v 15.281527 8.616610 32.056576
v 18.881811 8.616608 29.746735
v 26.875811 8.615911 22.642115
v 25.916574 8.613374 21.693895
v 19.817820 0.023305 26.057993
v 4.854042 -0.314984 25.654373
v 4.936668 -0.372255 29.246304
v 6.644375 -0.372256 31.234535
v 8.814438 -0.372258 32.483093
v 11.752012 -0.372258 32.834389
v 15.281527 -0.372259 32.056576
v 18.881811 -0.372261 29.746735
v 26.795565 -0.371567 22.540386
v 25.715643 -0.369030 21.499775
v -29.309174 8.369784 23.437210
v -17.907677 8.513362 25.817169
v -17.906891 8.513338 16.153673
v -29.309166 8.437791 15.940336
v 18.274881 8.777031 14.032467
v 22.487669 8.513268 0.224379
v -13.323101 8.513349 3.978702
v -22.961857 8.513406 -16.071234
v -28.618715 8.513407 -6.652245
v -4.374388 8.455978 26.003262
v -2.992478 8.513406 33.785168
v 0.010719 8.513406 37.164108
v 3.539509 8.513405 38.749023
v 9.603418 8.513403 40.018497
v 15.423635 8.513402 39.394127
v 20.769716 8.513401 36.524311
v 30.375349 8.513400 27.323677
v 35.903694 8.513399 22.635992
v 32.698761 8.512388 16.270620
v 26.359621 8.837244 16.442316
v -29.309174 -0.810028 23.437210
v -29.309166 -0.810028 15.940336
v -17.877836 -0.809960 16.184145
v -17.877060 -0.809983 25.801842
v 18.269365 -0.546360 14.055690
v -13.308832 -0.809970 4.014912
v 22.509665 -0.809891 0.280197
v -28.618715 -0.810028 -6.652245
v -22.961857 -0.810029 -16.071234
v -4.374389 -0.752600 26.003262
v -2.992480 -0.810028 33.785168
v 3.539507 -0.810030 38.749023
v 0.010717 -0.810029 37.164108
v 9.603416 -0.810031 40.018497
v 15.423632 -0.810032 39.394127
v 20.769716 -0.810034 36.524311
v 30.375349 -0.810035 27.323677
v 32.598442 -0.809027 16.143446
v 35.903694 -0.810035 22.635992
v 26.159636 -0.480279 16.250574
v -29.309172 -0.759213 22.573721
v -29.309168 -0.759213 17.055910
v -29.309172 8.369773 22.573721
v -29.309168 8.437779 17.055910
v -4.275167 8.474175 26.662676
v -4.275168 -0.770798 26.662676
v 4.941135 8.592361 26.385138
v 4.957871 -0.348002 26.385134
v -2.832740 -0.752601 25.570818
v -2.733520 -0.770798 26.430708
v -2.733519 8.474175 26.430708
v -2.832740 8.455978 25.570818
v 2.805037 -0.321874 25.609720
v 2.776172 -0.354892 26.476633
v 2.765515 8.552454 25.609734
v 2.759436 8.585472 26.476637
v 8.340633 8.825936 26.281143
v 8.338591 -0.115715 26.254412
v 6.703979 8.613627 26.303310
v 6.735038 -0.274409 26.297855
v -13.741482 8.513352 3.108438
v -13.728071 -0.809974 3.142470
v -27.303654 8.513407 -8.740340
v -27.303654 -0.810028 -8.740340
v -24.373819 8.513406 -13.829276
v -24.373819 -0.810029 -13.829276
vt 0.118017 0.658258
vt 0.320879 0.658257
vt 0.320248 0.817050
vt 0.119590 0.815694
vt 0.439296 0.829142
vt 0.485895 0.829224
vt 0.485615 0.989043
vt 0.439016 0.988961
vt 0.342181 0.828972
vt 0.394782 0.829064
vt 0.394503 0.988883
vt 0.341902 0.988791
vt 0.277922 0.828860
vt 0.277642 0.988679
vt 0.201869 0.828727
vt 0.201589 0.988546
vt 0.011569 0.828390
vt 0.011439 0.988201
vt 0.452759 0.658257
vt 0.479256 0.658257
vt 0.473443 0.814164
vt 0.450094 0.812989
vt 0.600527 0.182232
vt 0.748509 0.182232
vt 0.748184 0.300312
vt 0.600490 0.298125
vt 0.598269 0.481547
vt 0.793339 0.481547
vt 0.793295 0.639224
vt 0.598500 0.640544
vt 0.344698 0.167435
vt 0.565577 0.167435
vt 0.565604 0.310026
vt 0.344164 0.310471
vt 0.376502 0.481547
vt 0.376057 0.640876
vt 0.013752 0.322856
vt 0.754126 0.323151
vt 0.754069 0.466001
vt 0.014302 0.465704
vt 0.013812 0.481547
vt 0.055913 0.481547
vt 0.056072 0.640655
vt 0.014084 0.640742
vt 0.359989 0.481547
vt 0.359536 0.640845
vt 0.919691 0.182232
vt 0.919765 0.298990
vt 0.027029 0.007404
vt 0.137932 0.007404
vt 0.137831 0.149771
vt 0.026929 0.149092
vt 0.207207 0.007404
vt 0.207106 0.149820
vt 0.266487 0.007404
vt 0.266385 0.149861
vt 0.361425 0.007404
vt 0.361324 0.149928
vt 0.451127 0.007404
vt 0.451026 0.149991
vt 0.544108 0.007404
vt 0.544007 0.150056
vt 0.747936 0.007404
vt 0.747836 0.150199
vt 0.859009 0.007404
vt 0.858909 0.150277
vt 0.008784 0.167435
vt 0.120411 0.167435
vt 0.120338 0.308450
vt 0.011099 0.310167
vt 0.219209 0.167435
vt 0.216671 0.311099
vt 0.589557 0.298096
vt 0.589563 0.182232
vt 0.812391 0.481547
vt 0.812379 0.639182
vt 0.536766 0.829744
vt 0.536487 0.988701
vt 0.003039 0.149075
vt 0.003138 0.007404
vt 0.939987 0.182232
vt 0.940035 0.298966
vt 0.054404 0.658258
vt 0.056091 0.812402
vt 0.020294 0.812946
vt 0.018193 0.658258
vt 0.575590 0.829762
vt 0.575311 0.988719
vt 0.089536 0.658258
vt 0.091004 0.812610
vt 0.794721 0.323167
vt 0.794664 0.466017
vn -0.016871 0.003753 -0.999851
vn -0.016798 0.003793 -0.999852
vn -0.016333 0.004051 -0.999858
vn -0.016333 0.004051 -0.999858
vn -0.758595 0.000000 0.651563
vn -0.758595 0.000000 0.651563
vn -0.758595 0.000000 0.651563
vn -0.758595 0.000000 0.651563
vn -0.118741 0.000000 0.992925
vn -0.118741 0.000000 0.992925
vn -0.118741 0.000000 0.992925
vn -0.118741 0.000000 0.992925
vn 0.215210 -0.000000 0.976568
vn 0.215210 -0.000000 0.976568
vn 0.539992 -0.000000 0.841670
vn 0.539992 -0.000000 0.841670
vn 0.668792 -0.007192 0.743415
vn 0.668792 -0.007192 0.743415
vn 0.698217 0.000861 -0.715885
vn 0.698217 0.000861 -0.715885
vn 0.698217 0.000861 -0.715885
vn 0.698217 0.000861 -0.715885
vn -0.598843 0.018400 -0.800655
vn -0.598843 0.018400 -0.800655
vn 0.203437 0.001148 -0.979087
vn 0.203437 0.001148 -0.979087
vn 0.203437 0.001148 -0.979087
vn 0.203437 0.001148 -0.979087
vn -0.020022 0.001609 0.999798
vn -0.020022 0.001609 0.999798
vn -0.020022 0.001609 0.999798
vn -0.020022 0.001609 0.999798
vn -0.956120 -0.002087 -0.292967
vn -0.956120 -0.002087 -0.292967
vn -0.956120 -0.002087 -0.292967
vn -0.956120 -0.002087 -0.292967
vn 0.936023 0.003433 0.351921
vn 0.936023 0.003433 0.351921
vn 0.936023 0.003433 0.351921
vn 0.936023 0.003433 0.351921
vn -0.337944 0.002419 0.941163
vn -0.337944 0.002419 0.941163
vn -0.337944 0.002419 0.941163
vn -0.337944 0.002419 0.941163
vn 0.846172 -0.000000 0.532910
vn 0.846172 -0.000000 0.532910
vn 0.846172 -0.000000 0.532910
vn 0.846172 -0.000000 0.532910
vn 0.571291 -0.001095 -0.820747
vn 0.571101 -0.001095 -0.820879
vn 0.901297 -0.000294 -0.433202
vn 0.901296 -0.000294 -0.433203
vn -0.015607 0.000764 -0.999878
vn -0.015607 0.000764 -0.999878
vn 0.984168 0.000000 -0.177239
vn 0.984168 0.000000 -0.177239
vn 0.984168 0.000000 -0.177239
vn 0.984168 0.000000 -0.177239
vn 0.747443 0.000000 -0.664326
vn 0.747443 0.000000 -0.664326
vn 0.409711 0.000000 -0.912215
vn 0.409711 0.000000 -0.912215
vn 0.204907 0.000000 -0.978781
vn 0.204907 0.000000 -0.978781
vn -0.106664 0.000000 -0.994295
vn -0.106664 0.000000 -0.994295
vn -0.472970 0.000000 -0.881079
vn -0.472970 0.000000 -0.881079
vn -0.691719 0.000000 -0.722167
vn -0.691719 0.000000 -0.722167
vn -0.646734 0.000000 -0.762716
vn -0.646734 0.000000 -0.762716
vn -0.892160 0.001719 0.451716
vn -0.892160 0.001719 0.451716
vn -0.892160 0.001719 0.451716
vn -0.892160 0.001719 0.451716
vn 0.020920 -0.017441 0.999629
vn 0.020920 -0.017441 0.999629
vn 0.020920 -0.017441 0.999629
vn 0.020920 -0.017441 0.999629
vn -0.276924 -0.005634 0.960875
vn -0.276924 -0.005634 0.960875
vn 1.000000 -0.000000 0.000002
vn 1.000000 -0.000000 0.000002
vn 1.000000 -0.000000 0.000002
vn 1.000000 -0.000000 0.000002
vn 1.000000 -0.000000 0.000002
vn 1.000000 -0.000000 0.000002
vn 1.000000 -0.000000 0.000002
vn 1.000000 -0.000000 0.000002
vn -0.999990 -0.000933 -0.004485
vn -0.999990 -0.000933 -0.004485
vn 0.148793 -0.000000 0.988868
vn 0.148793 -0.000000 0.988868
vn 0.148793 -0.000000 0.988868
vn 0.148793 -0.000000 0.988868
vn -0.270083 0.000000 -0.962837
vn -0.270083 0.000000 -0.962837
vn 0.172261 0.000835 -0.985051
vn 0.021787 0.000099 -0.999763
vn 0.021787 0.000099 -0.999763
vn 0.174058 0.000844 -0.984735
vn 0.041902 0.000078 0.999122
vn 0.041902 0.000078 0.999122
vn 0.041902 0.000078 0.999122
vn 0.041902 0.000078 0.999122
vn 0.178231 0.001688 -0.983987
vn 0.163919 0.001696 -0.986472
vn 0.549053 -0.001130 -0.835787
vn 0.549053 -0.001130 -0.835787
vn 0.571101 -0.001095 -0.820879
vn 0.571291 -0.001095 -0.820747
vn 0.846171 -0.000000 0.532911
vn 0.846171 -0.000000 0.532911
vn 0.846171 -0.000000 0.532911
vn 0.846171 -0.000000 0.532911
s 1
g Walls Wall
usemtl initialShadingGroup
f 132/61/109 131/64/110 55/63/111 65/62/112
s 2
f 68/65/113 58/68/114 57/67/115 67/66/116
f 70/69/117 59/72/118 60/71/119 69/70/120
f 69/70/120 60/71/119 58/68/114 68/65/113
f 71/73/121 61/74/122 59/72/118 70/69/117
f 72/75/123 62/76/124 61/74/122 71/73/121
f 73/77/125 63/78/126 62/76/124 72/75/123
s off
f 74/79/127 64/82/128 63/81/129 73/80/130
s 1
f 65/62/112 55/63/111 64/82/131 74/79/132
s 4
f 95/83/133 75/86/134 76/85/135 98/84/136
s off
f 97/87/137 77/90/138 78/89/139 96/88/140
f 99/91/141 79/94/142 80/93/143 101/92/144
f 100/95/145 81/96/146 77/90/147 97/87/148
f 101/97/149 80/100/150 82/99/151 103/98/152
f 138/101/153 137/104/154 83/103/155 102/102/156
f 136/105/157 135/106/158 81/96/159 100/95/160
s 4
f 98/84/136 76/85/135 84/108/161 104/107/162
s 5
f 120/109/163 119/112/164 85/111/165 105/110/166
f 105/110/166 85/111/165 86/114/167 107/113/168
f 107/113/168 86/114/167 87/116/169 106/115/170
f 106/115/170 87/116/169 88/118/171 108/117/172
f 108/117/172 88/118/171 89/120/173 109/119/174
f 109/119/174 89/120/173 90/122/175 110/121/176
f 110/121/176 90/122/175 91/124/177 111/123/178
f 111/123/178 91/124/177 92/126/179 113/125/180
s off
f 113/127/181 92/130/182 93/129/183 112/128/184
s 6
f 112/128/185 93/129/186 94/132/187 114/131/188
f 114/131/188 94/132/187 79/94/189 99/91/190
s off
f 95/83/191 115/134/192 117/133/193 75/86/194
f 78/89/195 118/136/196 116/135/197 96/88/198
s 2
f 67/66/116 57/67/115 121/138/199 122/137/200
s off
f 120/109/201 124/140/202 125/139/203 119/112/204
s 4
f 84/108/161 126/142/205 123/141/206 104/107/162
s 1
f 66/143/207 127/146/208 129/145/209 56/144/210
s off
f 121/138/211 130/148/212 128/147/213 122/137/214
s 1
f 134/149/215 133/150/216 131/64/110 132/61/109
f 66/143/207 56/144/210 133/150/216 134/149/215
s off
f 102/102/217 83/103/218 135/106/219 136/105/220
f 103/98/221 82/99/222 139/152/223 140/151/224
g default
v -29.660624 -0.330935 23.782022
v -17.824856 -0.330980 26.588697
v -29.660561 -0.330935 15.528632
v -18.216703 -0.331004 15.492914
v -5.700406 -0.390329 27.177128
v 19.678616 0.036666 26.610277
v 4.776965 -0.384193 27.673473
v -4.275421 -0.328971 34.038403
v 4.936671 -0.330937 29.331291
v -1.066649 -0.328971 37.648636
v 2.703692 -0.328972 39.342037
v 9.182675 -0.328974 40.698406
v 6.644378 -0.330938 31.319521
v 8.814438 -0.330939 32.568081
v 11.752015 -0.330940 32.919376
v 15.401281 -0.328975 40.031300
v 15.281527 -0.330941 32.141563
v 21.113317 -0.328976 36.965034
v 18.881811 -0.330943 29.831722
v 31.376513 -0.328977 27.134615
v 26.875813 -0.331590 22.727102
v 37.283241 -0.328978 22.126049
v 32.698761 -0.331954 15.696119
v 26.359598 -0.007098 15.867800
v 25.746328 -0.333950 22.200809
v 19.145964 -0.067311 13.457958
v 23.511360 -0.331075 -0.216007
v -13.628760 -0.330993 4.825915
v -25.048065 -0.330936 -17.450537
v -31.168970 -0.330935 -7.222173
vt 0.020230 0.183083
vt 0.122042 0.139299
vt 0.183200 0.280261
vt 0.048404 0.343957
vt 0.406537 0.730361
vt 0.247119 0.806726
vt 0.339128 0.280261
vt 0.598377 0.711608
vt 0.394687 0.000000
vt 0.553337 0.021235
vt 0.154941 0.628477
vt 0.105474 0.496612
vt 0.135338 0.639253
vt 0.028395 0.550601
vt 0.000000 0.664819
vt 0.000885 0.609331
vt 0.119872 0.670864
vt 0.017644 0.751928
vt 0.115984 0.704254
vt 0.127236 0.742350
vt 0.155557 0.781758
vt 0.058867 0.825091
vt 0.203153 0.813911
vt 0.126998 0.879278
vt 0.333207 0.874820
vt 0.302717 0.953716
vt 0.450835 0.909342
vt 0.395840 1.000000
vt 0.333707 0.858096
vt 0.415083 0.832133
vn 0.000005 1.000000 -0.000001
vn -0.007116 0.999970 -0.002984
vn -0.006099 0.999961 -0.006463
vn 0.000005 1.000000 -0.000001
vn -0.006099 0.999961 -0.006463
vn -0.007116 0.999970 -0.002984
vn -0.008544 0.999958 -0.003369
vn -0.006466 0.999942 -0.008655
vn -0.006099 0.999961 -0.006463
vn -0.006466 0.999942 -0.008655
vn -0.003054 0.999962 -0.008117
vn -0.001906 0.999985 -0.005068
vn -0.001906 0.999985 -0.005068
vn -0.003054 0.999962 -0.008117
vn 0.000002 1.000000 0.000001
vn 0.000002 1.000000 0.000001
vn -0.008544 0.999958 -0.003369
vn -0.007116 0.999970 -0.002984
vn -0.006972 0.990760 0.135446
vn -0.006414 0.993393 0.114583
vn -0.006414 0.993393 0.114583
vn -0.006972 0.990760 0.135446
vn -0.001396 0.999979 -0.006398
vn -0.001519 0.999975 -0.006885
vn -0.001519 0.999975 -0.006885
vn -0.001396 0.999979 -0.006398
vn 0.000116 1.000000 -0.000153
vn 0.000100 1.000000 -0.000178
vn -0.001519 0.999975 -0.006885
vn 0.000100 1.000000 -0.000178
vn 0.000030 1.000000 -0.000232
vn 0.000083 1.000000 -0.000209
vn 0.000083 1.000000 -0.000209
vn 0.000030 1.000000 -0.000232
vn -0.000008 1.000000 -0.000254
vn 0.000077 1.000000 -0.000245
vn -0.000008 1.000000 -0.000254
vn 0.000030 1.000000 -0.000232
vn -0.000078 1.000000 -0.000250
vn -0.000099 1.000000 -0.000247
vn -0.000099 1.000000 -0.000247
vn -0.000078 1.000000 -0.000250
vn -0.000183 1.000000 -0.000258
vn -0.000198 1.000000 -0.000264
vn -0.000198 1.000000 -0.000264
vn -0.000183 1.000000 -0.000258
vn -0.000239 1.000000 -0.000280
vn 0.006702 0.999952 0.007193
vn 0.006702 0.999952 0.007193
vn -0.000239 1.000000 -0.000280
vn -0.000268 1.000000 -0.000291
vn 0.008799 0.999916 0.009468
vn 0.006702 0.999952 0.007193
vn 0.008799 0.999916 0.009468
vn 0.029419 0.999359 0.020384
vn 0.029047 0.999385 0.019621
vn 0.029047 0.999385 0.019621
vn 0.029419 0.999359 0.020384
vn 0.025100 0.999618 0.011538
vn 0.025100 0.999618 0.011538
s off
g Floor
usemtl initialShadingGroup
f 141/153/225 142/156/226 144/155/227 143/154/228
f 144/155/229 142/156/230 146/158/231 166/157/232
f 144/155/233 166/157/234 167/160/235 168/159/236
f 168/159/237 167/160/238 169/162/239 170/161/240
f 146/158/241 142/156/242 145/164/243 147/163/244
f 147/163/245 145/164/246 148/166/247 149/165/248
f 149/165/249 148/166/250 150/168/251 151/167/252
f 149/165/253 151/167/254 152/170/255 153/169/256
f 153/169/257 152/170/258 155/172/259 154/171/260
f 155/172/261 152/170/262 156/174/263 157/173/264
f 157/173/265 156/174/266 158/176/267 159/175/268
f 159/175/269 158/176/270 160/178/271 161/177/272
f 161/177/273 160/178/274 162/180/275 163/179/276
f 161/177/277 163/179/278 164/182/279 165/181/280
f 165/181/281 164/182/282 166/157/283 146/158/284
