# This file uses centimeters as units for non-parametric coordinates.

mtllib Level_1.mtl
g default
v -6.095734 8.972288 17.900771
v -6.079254 8.972288 4.527286
v 2.884944 8.972288 4.527286
v 0.717208 8.972288 17.900766
v 0.721194 8.972288 4.527286
v -8.440674 8.972090 18.065842
v -8.419608 8.972090 4.468502
v -8.414086 8.995992 -6.378638
v -4.606645 8.995992 -6.378638
v -14.317398 8.972287 -24.398134
v -11.905762 8.972287 -28.990090
v 8.839948 8.972287 -16.999026
v -8.825789 8.996098 -6.873056
v -4.606643 8.996098 -6.954643
v -20.764283 8.971984 -13.167227
v -17.138170 8.971984 -19.410383
v 1.768678 8.995796 -6.300308
v 2.884944 8.995796 -6.300308
v 6.558770 8.972288 -6.260876
v 6.416282 8.972288 2.628025
v 2.057982 8.972287 17.900765
v 4.610451 8.972287 13.419350
v 9.963148 8.972287 7.689487
v 9.979323 8.972287 11.662878
v 0.736564 8.972287 22.372046
v -0.045279 8.972287 22.372046
v -6.665427 8.972090 22.605659
v -5.914778 8.972090 22.605659
v 1.768671 8.995796 -7.025992
v 3.159312 8.995796 -6.987693
vt 0.243762 0.648455
vt 0.289192 0.649037
vt 0.292061 0.908563
vt 0.246595 0.912325
vt 0.531224 0.609202
vt 0.601260 0.706577
vt 0.602521 0.783680
vt 0.498754 0.819045
vt 0.463149 0.646900
vt 0.460567 0.436783
vt 0.531870 0.436673
vt 0.241283 0.437957
vt 0.315169 0.437049
vt 0.450290 0.906619
vt 0.296694 0.999821
vt 0.282127 1.000000
vt 0.424271 0.906938
vt 0.410540 0.993888
vt 0.421160 0.647416
vt 0.438905 0.437049
vt 0.425713 0.993702
vt 0.315032 0.425871
vt 0.438732 0.422966
vt 0.233176 0.428460
vt 0.000000 0.309165
vt 0.068879 0.187148
vt 0.122429 0.089685
vt 0.168133 0.000000
vt 0.573577 0.227748
vt 0.465728 0.423378
vn 0.000068 -0.999999 -0.001140
vn 0.000020 -0.999999 -0.000982
vn 0.000023 -1.000000 -0.000005
vn 0.000081 -1.000000 -0.000006
vn -0.002027 -0.999998 -0.000690
vn -0.000000 -1.000000 -0.000000
vn -0.000000 -1.000000 -0.000000
vn -0.000000 -1.000000 -0.000000
vn -0.000801 -0.999999 -0.000627
vn -0.002378 -0.999996 -0.001538
vn -0.003577 -0.999993 -0.001218
vn 0.000053 -0.999998 -0.002185
vn 0.000014 -0.999998 -0.002176
vn -0.000000 -1.000000 -0.000000
vn 0.000024 -1.000000 -0.000023
vn 0.000062 -1.000000 -0.000035
vn 0.000003 -1.000000 -0.000004
vn 0.000013 -1.000000 -0.000018
vn -0.000001 -0.999999 -0.000972
vn -0.000002 -0.999998 -0.002172
vn -0.000000 -1.000000 -0.000000
vn 0.000646 -0.999999 0.001062
vn -0.000263 -0.999999 0.001305
vn -0.000039 -1.000000 -0.000082
vn -0.000039 -1.000000 -0.000082
vn 0.001011 -0.999999 0.001253
vn 0.001011 -0.999999 0.001253
vn 0.000723 -0.999999 0.001116
vn -0.000170 -0.999999 0.001289
vn -0.000415 -0.999999 0.001369
vn -0.000415 -0.999999 0.001369
vn -0.000415 -0.999999 0.001369
s 1
g Celling Room
usemtl initialShadingGroup
f 7/1/1 2/2/2 1/3/3 6/4/4
f 20/5/5 23/6/6 24/7/7 22/8/8
f 20/5/5 3/9/9 18/10/10 19/11/11
f 7/1/1 8/12/12 9/13/13 2/2/2
f 3/9/9 20/5/5 22/8/8 21/14/14
f 1/3/3 28/15/15 27/16/16 6/4/4
f 4/17/17 26/18/18 28/15/15 1/3/3
f 2/2/2 5/19/19 4/17/17 1/3/3
f 9/13/13 17/20/20 5/19/19 2/2/2
f 21/14/14 25/21/21 26/18/18 4/17/17
f 5/19/19 3/9/9 21/14/14 4/17/17
f 17/20/20 18/10/10 3/9/9 5/19/19
s 3
f 14/22/22 29/23/23 17/20/24 9/13/25
f 14/22/22 13/24/26 15/25/27 16/26/28
f 16/26/28 10/27/29 29/23/23 14/22/22
f 10/27/29 11/28/30 12/29/31 30/30/32 29/23/23
g default
v 0.736564 0.717794 22.223341
v 2.057982 0.717794 17.900763
v 0.736564 9.073430 22.223341
v 2.057982 9.073430 17.900763
v -6.661511 0.717794 22.219597
v -8.381383 0.717794 -6.141278
v 8.565076 0.717794 -16.831347
v -20.514759 0.717794 -13.302130
v -11.888366 0.717794 -28.724989
v 2.884944 0.717794 -6.155333
v 9.963147 0.717794 7.689486
v 6.558769 0.717794 -6.260876
v 6.416281 0.717795 2.628026
v -8.386813 0.717794 4.527286
v -8.407532 0.717794 17.900772
v 4.610451 0.717794 13.419350
v 9.979322 0.717794 11.662878
v -5.923221 0.717794 22.219597
v -4.471028 0.717794 -6.141278
v -0.045279 0.717794 22.223341
v 1.465875 0.717794 -6.155333
v -17.033369 0.717794 -19.309153
v -14.214948 0.717794 -24.339008
v -8.407532 9.103267 17.900772
v -8.386813 9.103267 4.527286
v -8.381383 9.127777 -6.141278
v -4.447645 9.127777 -6.141278
v -17.033369 9.103267 -19.309153
v -20.514759 9.103267 -13.302130
v 6.416281 9.103267 2.628026
v 4.610451 9.103267 13.419350
v 9.979322 9.103267 11.662878
v 9.963147 9.103267 7.689486
v 6.558769 9.103267 -6.260876
v 2.884944 9.127777 -6.155333
v -6.661511 9.103267 22.219597
v -5.923221 9.103267 22.219597
v -0.045279 9.103267 22.223341
v 1.457898 9.127777 -6.155333
v -14.214948 9.103267 -24.339008
v 8.565076 9.103267 -16.831347
v -11.888367 9.103267 -28.724989
v 1.465867 0.717794 -7.129609
v -4.471033 0.717794 -7.111552
v -8.863705 0.717794 -7.111549
v -8.863705 9.127777 -7.111549
v -4.447650 9.127777 -7.111552
v 1.457891 9.127777 -7.129609
v 2.969496 9.127777 -7.129606
v 2.936291 0.717794 -7.129606
vt 0.000000 0.783178
vt 0.229716 0.783178
vt 0.229716 0.664322
vt 0.000000 0.664322
vt 0.501175 0.268153
vt 0.711903 0.268153
vt 0.711903 0.604232
vt 0.501175 0.604232
vt 0.723527 0.000000
vt 0.999194 0.000000
vt 0.999194 0.197535
vt 0.723527 0.197535
vt 0.000000 0.541082
vt 0.230536 0.541082
vt 0.230536 0.492717
vt 0.000000 0.492717
vt 0.230536 0.383480
vt 0.000000 0.383480
vt 0.230536 0.244378
vt 0.000000 0.244378
vt 0.230536 0.000000
vt 0.000000 0.000000
vt 0.231210 0.002953
vt 0.000000 0.002953
vt 0.501175 0.000050
vt 0.712519 0.000050
vt 0.711903 0.712742
vt 0.501175 0.712742
vt 0.711904 0.712733
vt 0.501175 0.712733
vt 0.000000 0.783189
vt 0.230536 0.783189
vt 0.243529 0.347244
vt 0.488563 0.347244
vt 0.488563 0.000000
vt 0.243529 0.000000
vt 0.488563 0.128199
vt 0.243529 0.128199
vt 1.000000 0.400852
vt 0.723527 0.400852
vt 0.243529 0.630825
vt 0.489280 0.630825
vt 0.501175 0.000000
vt 0.712519 0.000000
vt 0.723527 0.400778
vt 1.000000 0.400777
vt 0.243529 0.630847
vt 0.489280 0.630847
vt 0.000000 0.002973
vt 0.231210 0.002973
vn -0.956313 0.000000 -0.292346
vn -0.956313 0.000000 -0.292346
vn -0.956313 0.000000 -0.292346
vn -0.956313 0.000000 -0.292346
vn 0.999999 0.000000 0.001549
vn 0.999999 0.000000 0.001549
vn 0.999999 0.000000 0.001549
vn 0.999999 0.000000 0.001549
vn 0.865199 0.000000 0.501429
vn 0.865199 0.000000 0.501429
vn 0.865199 0.000000 0.501429
vn 0.865199 0.000000 0.501429
vn -0.310941 0.000000 -0.950429
vn -0.310941 0.000000 -0.950429
vn -0.310941 0.000000 -0.950429
vn -0.310941 0.000000 -0.950429
vn -0.999992 0.000000 0.004071
vn -0.999992 0.000000 0.004071
vn -0.999992 0.000000 0.004071
vn -0.999992 0.000000 0.004071
vn -0.818940 0.000000 0.573880
vn -0.818940 0.000000 0.573880
vn -0.818940 0.000000 0.573880
vn -0.818940 0.000000 0.573880
vn -0.999872 0.000000 -0.016028
vn -0.999872 0.000000 -0.016028
vn -0.999872 0.000000 -0.016028
vn -0.999872 0.000000 -0.016028
vn 0.028717 0.000000 0.999588
vn 0.028717 0.000000 0.999588
vn 0.028717 0.000000 0.999588
vn 0.028717 0.000000 0.999588
vn 1.000000 0.000000 0.000509
vn 1.000000 0.000000 0.000509
vn 1.000000 0.000000 0.000509
vn 1.000000 0.000000 0.000509
vn -0.868939 0.000000 -0.494920
vn -0.868939 0.000000 -0.494920
vn -0.868939 0.000000 -0.494920
vn -0.868939 0.000000 -0.494920
vn 0.927102 0.000000 -0.374810
vn 0.927102 0.000000 -0.374810
vn 0.927102 0.000000 -0.374810
vn 0.927102 0.000000 -0.374810
vn 0.000000 0.000000 -1.000000
vn 0.000000 0.000000 -1.000000
vn 0.000000 0.000000 -1.000000
vn 0.000000 0.000000 -1.000000
vn 0.000002 0.000000 -1.000000
vn 0.000002 0.000000 -1.000000
vn 0.000002 0.000000 -1.000000
vn 0.000002 0.000000 -1.000000
vn -0.502687 -0.000000 0.864469
vn -0.502687 -0.000000 0.864469
vn -0.502687 -0.000000 0.864469
vn -0.502687 -0.000000 0.864469
vn 0.883405 0.000000 0.468610
vn 0.883405 0.000000 0.468610
vn 0.883405 0.000000 0.468610
vn 0.883405 0.000000 0.468610
vn 0.469212 0.000000 -0.883086
vn 0.469212 0.000000 -0.883086
vn 0.469212 0.000000 -0.883086
vn 0.469212 0.000000 -0.883086
vn -0.865603 0.001711 -0.500729
vn -0.865603 0.001711 -0.500729
vn -0.865603 0.001711 -0.500729
vn -0.865603 0.001711 -0.500729
vn 0.000000 0.000000 1.000000
vn 0.000000 0.000000 1.000000
vn 0.000000 0.000000 1.000000
vn 0.000000 0.000000 1.000000
vn -0.000001 0.000000 -1.000000
vn -0.000001 0.000000 -1.000000
vn -0.000001 0.000000 -1.000000
vn -0.000001 0.000000 -1.000000
vn 0.000002 -0.000000 -1.000000
vn 0.000002 -0.000000 -1.000000
vn 0.000002 -0.000000 -1.000000
vn 0.000002 -0.000000 -1.000000
vn 0.000000 0.000000 1.000000
vn 0.000000 0.000000 1.000000
vn 0.000000 0.000000 1.000000
vn 0.000000 0.000000 1.000000
s off
g polySurface5
usemtl initialShadingGroup
f 31/31/33 33/32/34 34/33/35 32/34/36
f 44/35/37 55/36/38 54/37/39 45/38/40
f 52/39/41 58/40/42 59/41/43 38/42/44
f 46/43/45 61/44/46 62/45/47 47/46/48
f 47/46/49 62/45/50 63/47/51 41/48/52
f 41/48/53 63/47/54 60/49/55 43/50/56
f 43/50/57 60/49/58 64/51/59 42/52/60
f 42/52/61 64/51/62 65/53/63 40/54/64
f 36/55/65 56/56/66 55/36/67 44/35/68
f 32/34/69 34/33/70 61/44/71 46/43/72
f 45/38/73 54/37/74 66/57/75 35/58/76
f 35/58/77 66/57/78 67/59/79 48/60/80
f 50/61/81 68/62/82 33/32/83 31/31/84
f 37/63/85 71/64/86 72/65/87 39/66/88
f 39/66/89 72/65/90 70/67/91 53/68/92
f 38/42/93 59/41/94 76/69/95 75/70/96
f 80/71/97 79/72/98 71/64/99 37/63/100
f 36/55/101 49/73/102 57/74/103 56/56/104
f 74/75/105 75/70/106 76/69/107 77/76/108
f 80/71/109 73/77/110 78/78/111 79/72/112
f 51/79/113 40/54/114 65/53/115 69/80/116
g default
v -6.095734 0.939338 17.900771
v -6.079254 0.939338 4.527286
v 2.884944 0.939338 4.527286
v 0.717208 0.939338 17.900766
v 0.721194 0.939338 4.527286
v -8.440674 0.939140 18.065842
v -8.419608 0.939140 4.468502
v -8.414086 0.963042 -6.378638
v -4.606645 0.963042 -6.378638
v -14.317398 0.939337 -24.398134
v -11.905762 0.939337 -28.990090
v 8.839948 0.939337 -16.999026
v -8.825789 0.963148 -6.873056
v -4.606643 0.963148 -6.954643
v -20.764283 0.939034 -13.167227
v -17.138170 0.939034 -19.410383
v 1.768678 0.962846 -6.300308
v 2.884944 0.962846 -6.300308
v 6.558770 0.939338 -6.260876
v 6.416282 0.939338 2.628025
v 2.057982 0.939337 17.900765
v 4.610451 0.939337 13.419350
v 9.963148 0.939337 7.689487
v 9.979323 0.939337 11.662878
v 0.736564 0.939337 22.372046
v -0.045279 0.939337 22.372046
v -6.665427 0.939140 22.605659
v -5.914778 0.939140 22.605659
v 1.768671 0.962846 -7.025992
v 3.159312 0.962846 -6.987693
vt 0.239258 0.648476
vt 0.284617 0.649615
vt 0.284298 0.908812
vt 0.238849 0.912012
vt 0.526798 0.612805
vt 0.595542 0.710903
vt 0.595855 0.787913
vt 0.491799 0.821956
vt 0.458356 0.649615
vt 0.458356 0.439761
vt 0.529560 0.440525
vt 0.239365 0.438243
vt 0.313158 0.438243
vt 0.442328 0.908812
vt 0.287805 1.000000
vt 0.273256 1.000000
vt 0.416342 0.908812
vt 0.401564 0.995472
vt 0.416420 0.649615
vt 0.436721 0.439761
vt 0.416717 0.995472
vt 0.313158 0.427079
vt 0.436721 0.425696
vt 0.231385 0.428660
vt 0.000000 0.306670
vt 0.070279 0.185669
vt 0.124950 0.088999
vt 0.171691 0.000000
vt 0.573773 0.232404
vt 0.463674 0.426438
vn -0.000068 0.999999 0.001140
vn -0.000081 1.000000 0.000006
vn -0.000023 1.000000 0.000005
vn -0.000020 0.999999 0.000982
vn 0.002027 0.999998 0.000690
vn 0.000000 1.000000 0.000000
vn 0.000000 1.000000 0.000000
vn 0.000000 1.000000 0.000000
vn 0.003577 0.999993 0.001218
vn 0.002378 0.999996 0.001538
vn 0.000801 0.999999 0.000627
vn -0.000014 0.999998 0.002176
vn -0.000053 0.999998 0.002185
vn 0.000000 1.000000 0.000000
vn -0.000062 1.000000 0.000035
vn -0.000024 1.000000 0.000023
vn -0.000003 1.000000 0.000004
vn -0.000013 1.000000 0.000018
vn 0.000001 0.999999 0.000972
vn 0.000002 0.999998 0.002172
vn 0.000000 1.000000 0.000000
vn -0.000646 0.999999 -0.001062
vn 0.000039 1.000000 0.000082
vn 0.000039 1.000000 0.000082
vn 0.000263 0.999999 -0.001305
vn -0.000723 0.999999 -0.001116
vn -0.001011 0.999999 -0.001253
vn -0.001011 0.999999 -0.001253
vn 0.000170 0.999999 -0.001289
vn 0.000415 0.999999 -0.001369
vn 0.000415 0.999999 -0.001369
vn 0.000415 0.999999 -0.001369
s 1
g Room Celling1
usemtl initialShadingGroup
f 87/81/117 86/84/118 81/83/119 82/82/120
f 100/85/121 102/88/122 104/87/123 103/86/124
f 100/85/121 99/91/125 98/90/126 83/89/127
f 87/81/117 82/82/120 89/93/128 88/92/129
f 83/89/127 101/94/130 102/88/122 100/85/121
f 81/83/119 86/84/118 107/96/131 108/95/132
f 84/97/133 81/83/119 108/95/132 106/98/134
f 82/82/120 81/83/119 84/97/133 85/99/135
f 89/93/128 82/82/120 85/99/135 97/100/136
f 101/94/130 84/97/133 106/98/134 105/101/137
f 85/99/135 84/97/133 101/94/130 83/89/127
f 97/100/136 85/99/135 83/89/127 98/90/126
s 4
f 94/102/138 89/93/139 97/100/140 109/103/141
f 94/102/138 96/106/142 95/105/143 93/104/144
f 96/106/142 94/102/138 109/103/141 90/107/145
f 90/107/145 109/103/141 110/110/146 92/109/147 91/108/148
