# This file uses centimeters as units for non-parametric coordinates.

mtllib LWall.mtl
g default
v -12.199013 -0.797164 16.534246
v -10.646958 -0.766926 15.272867
v -9.094904 -0.683027 14.011488
v -7.542849 -0.564367 12.750110
v -5.990794 -0.437679 11.488730
v -4.438739 -0.331507 10.227351
v -2.886684 -0.269769 8.965972
v -1.334629 -0.260311 7.704594
v 0.189600 -0.276543 6.407107
v 0.199012 -0.260311 4.953539
v 0.195449 -0.260311 3.653549
v 0.191885 -0.260311 2.353559
v 0.188321 -0.260311 1.053568
v 0.184757 -0.260311 -0.246422
v -12.199013 2.562487 16.534246
v -10.646958 2.592725 15.272867
v -9.094904 2.676625 14.011488
v -7.542849 2.795285 12.750110
v -5.990794 2.921972 11.488730
v -4.438739 3.028144 10.227351
v -2.886684 3.089882 8.965972
v -1.334629 3.099341 7.704594
v 0.189600 3.083109 6.407107
v 0.199012 3.099341 4.953539
v 0.195449 3.099341 3.653549
v 0.191885 3.099341 2.353559
v 0.188321 3.099341 1.053568
v 0.184757 3.099341 -0.246422
v -12.199013 5.279257 16.534246
v -10.646958 5.309494 15.272867
v -9.094904 5.393394 14.011488
v -7.542849 5.512055 12.750110
v -5.990794 5.638742 11.488730
v -4.438739 5.744915 10.227351
v -2.886684 5.806652 8.965972
v -1.334629 5.816111 7.704594
v 0.189600 5.799879 6.407107
v 0.199012 5.816111 4.953539
v 0.195449 5.816111 3.653549
v 0.191885 5.816111 2.353559
v 0.188321 5.816111 1.053568
v 0.184757 5.816111 -0.246422
v -12.199013 8.191087 16.534246
v -10.646958 8.191087 15.272867
v -9.094904 8.191088 14.011488
v -7.542849 8.191090 12.750110
v -5.990794 8.191091 11.488730
v -4.438739 8.191092 10.227351
v -2.886684 8.191092 8.965972
v -1.334629 8.191092 7.704594
v 0.189600 8.191092 6.407107
v 0.199012 8.191092 4.953539
v 0.195450 8.191092 3.653549
v 0.191885 8.191092 2.353559
v 0.188321 8.191092 1.053568
v 0.184758 8.191092 -0.246422
v 0.181193 -0.260311 -1.546413
v 0.181193 3.099341 -1.546413
v 0.181193 5.816111 -1.546413
v 0.181193 8.191092 -1.546413
vt 0.243843 0.035929
vt 0.290862 0.035929
vt 0.290862 0.117230
vt 0.243843 0.117230
vt 0.337830 0.035929
vt 0.337830 0.117230
vt 0.384841 0.035929
vt 0.384841 0.117230
vt 0.432014 0.035929
vt 0.432014 0.117230
vt 0.479461 0.035929
vt 0.479461 0.117230
vt 0.527220 0.035929
vt 0.527220 0.117230
vt 0.575269 0.035929
vt 0.575269 0.117230
vt 0.623630 0.035929
vt 0.623630 0.117230
vt 0.658931 0.035929
vt 0.658931 0.117230
vt 0.690626 0.035929
vt 0.690626 0.117230
vt 0.722425 0.035929
vt 0.722425 0.117230
vt 0.754304 0.035929
vt 0.754304 0.117230
vt 0.786238 0.035929
vt 0.786238 0.117230
vt 0.818208 0.035929
vt 0.818208 0.117230
vt 0.290862 0.181812
vt 0.243843 0.181812
vt 0.337830 0.181812
vt 0.384841 0.181812
vt 0.432014 0.181812
vt 0.479461 0.181812
vt 0.527220 0.181812
vt 0.575269 0.181812
vt 0.623630 0.181812
vt 0.658931 0.181812
vt 0.690626 0.181812
vt 0.722425 0.181812
vt 0.754304 0.181812
vt 0.786238 0.181812
vt 0.818208 0.181812
vt 0.290862 0.245330
vt 0.243843 0.245330
vt 0.337830 0.245330
vt 0.384841 0.245330
vt 0.432014 0.245330
vt 0.479461 0.245330
vt 0.527220 0.245330
vt 0.575269 0.245330
vt 0.623630 0.245330
vt 0.658931 0.245330
vt 0.690626 0.245330
vt 0.722425 0.245330
vt 0.754304 0.245330
vt 0.786238 0.245330
vt 0.818208 0.245330
vn 0.630693 0.000000 0.776032
vn 0.630693 0.000000 0.776032
vn 0.630693 0.000000 0.776032
vn 0.630693 0.000000 0.776032
vn 0.630693 0.000000 0.776032
vn 0.630693 0.000000 0.776032
vn 0.630693 0.000000 0.776032
vn 0.630693 0.000000 0.776032
vn 0.630693 0.000000 0.776033
vn 0.630693 0.000000 0.776033
vn 0.630693 0.000000 0.776033
vn 0.630693 0.000000 0.776033
vn 0.630693 0.000000 0.776032
vn 0.630693 0.000000 0.776032
vn 0.630693 0.000000 0.776032
vn 0.630693 0.000000 0.776032
vn 0.630693 0.000000 0.776032
vn 0.630694 0.000000 0.776032
vn 0.630693 0.000000 0.776032
vn 0.630694 0.000000 0.776032
vn 0.630693 0.000000 0.776032
vn 0.630693 0.000000 0.776032
vn 0.630693 0.000000 0.776032
vn 0.630693 0.000000 0.776032
vn 0.630693 0.000000 0.776032
vn 0.630693 0.000000 0.776033
vn 0.630693 0.000000 0.776032
vn 0.630693 0.000000 0.776032
vn 0.648197 0.000000 0.761473
vn 0.648197 0.000000 0.761473
vn 0.648197 0.000000 0.761473
vn 0.648197 0.000000 0.761473
vn 0.999979 0.000000 0.006475
vn 0.999979 0.000000 0.006475
vn 0.999979 0.000000 0.006475
vn 0.999979 0.000000 0.006475
vn 0.999996 0.000000 -0.002741
vn 0.999996 0.000000 -0.002741
vn 0.999996 0.000000 -0.002741
vn 0.999996 0.000000 -0.002741
vn 0.999996 0.000000 -0.002741
vn 0.999996 0.000000 -0.002741
vn 0.999996 0.000000 -0.002741
vn 0.999996 0.000000 -0.002741
vn 0.999996 0.000000 -0.002741
vn 0.999996 0.000000 -0.002741
vn 0.999996 0.000000 -0.002741
vn 0.999996 0.000000 -0.002741
vn 0.999996 0.000000 -0.002741
vn 0.999996 0.000000 -0.002741
vn 0.999996 0.000000 -0.002741
vn 0.999996 0.000000 -0.002741
vn 0.999996 0.000000 -0.002741
vn 0.999996 0.000000 -0.002741
vn 0.999996 0.000000 -0.002741
vn 0.999996 0.000000 -0.002741
vn 0.630693 0.000000 0.776032
vn 0.630693 0.000000 0.776032
vn 0.630693 0.000000 0.776032
vn 0.630693 0.000000 0.776032
vn 0.630693 0.000000 0.776032
vn 0.630693 0.000000 0.776032
vn 0.630693 0.000000 0.776032
vn 0.630693 0.000000 0.776032
vn 0.630693 0.000000 0.776032
vn 0.630693 0.000000 0.776032
vn 0.630693 0.000000 0.776032
vn 0.630693 0.000000 0.776032
vn 0.630693 0.000000 0.776032
vn 0.630693 0.000000 0.776032
vn 0.630693 0.000000 0.776032
vn 0.630693 0.000000 0.776032
vn 0.630693 0.000000 0.776032
vn 0.630693 0.000000 0.776032
vn 0.630693 0.000000 0.776032
vn 0.630693 0.000000 0.776032
vn 0.630694 0.000000 0.776032
vn 0.630694 0.000000 0.776032
vn 0.630694 0.000000 0.776032
vn 0.630693 0.000000 0.776032
vn 0.630693 0.000000 0.776033
vn 0.630693 0.000000 0.776033
vn 0.630693 0.000000 0.776033
vn 0.630693 0.000000 0.776033
vn 0.648197 0.000000 0.761473
vn 0.648197 0.000000 0.761473
vn 0.648197 0.000000 0.761473
vn 0.648197 0.000000 0.761473
vn 0.999979 0.000000 0.006475
vn 0.999979 0.000000 0.006475
vn 0.999979 0.000000 0.006475
vn 0.999979 0.000000 0.006475
vn 0.999996 0.000000 -0.002741
vn 0.999996 0.000000 -0.002741
vn 0.999996 0.000000 -0.002741
vn 0.999996 0.000000 -0.002741
vn 0.999996 0.000000 -0.002741
vn 0.999996 0.000000 -0.002741
vn 0.999996 0.000000 -0.002741
vn 0.999996 0.000000 -0.002741
vn 0.999996 0.000000 -0.002741
vn 0.999996 0.000000 -0.002741
vn 0.999996 0.000000 -0.002741
vn 0.999996 0.000000 -0.002741
vn 0.999996 0.000000 -0.002741
vn 0.999996 0.000000 -0.002741
vn 0.999996 0.000000 -0.002741
vn 0.999996 0.000000 -0.002741
vn 0.999996 0.000000 -0.002741
vn 0.999996 0.000000 -0.002741
vn 0.999996 0.000000 -0.002741
vn 0.999996 0.000000 -0.002741
vn 0.630693 0.000000 0.776032
vn 0.630693 0.000000 0.776032
vn 0.630693 0.000000 0.776033
vn 0.630693 0.000000 0.776033
vn 0.630694 0.000000 0.776032
vn 0.630694 0.000000 0.776032
vn 0.630694 0.000000 0.776032
vn 0.630694 0.000000 0.776032
vn 0.630693 0.000000 0.776032
vn 0.630693 0.000000 0.776032
vn 0.630693 0.000000 0.776032
vn 0.630693 0.000000 0.776033
vn 0.630693 0.000000 0.776032
vn 0.630693 0.000000 0.776032
vn 0.630693 0.000000 0.776032
vn 0.630693 0.000000 0.776032
vn 0.630693 0.000000 0.776032
vn 0.630693 0.000000 0.776032
vn 0.630693 0.000000 0.776032
vn 0.630693 0.000000 0.776032
vn 0.630694 0.000000 0.776032
vn 0.630694 0.000000 0.776032
vn 0.630694 0.000000 0.776032
vn 0.630694 0.000000 0.776032
vn 0.630693 0.000000 0.776033
vn 0.630693 0.000000 0.776033
vn 0.630693 0.000000 0.776032
vn 0.630693 0.000000 0.776033
vn 0.648197 0.000000 0.761473
vn 0.648197 0.000000 0.761473
vn 0.648197 0.000000 0.761473
vn 0.648197 0.000000 0.761473
vn 0.999979 0.000000 0.006475
vn 0.999979 0.000000 0.006475
vn 0.999979 0.000000 0.006475
vn 0.999979 0.000000 0.006475
vn 0.999996 0.000000 -0.002741
vn 0.999996 0.000000 -0.002741
vn 0.999996 0.000000 -0.002741
vn 0.999996 0.000000 -0.002741
vn 0.999996 0.000000 -0.002742
vn 0.999996 0.000000 -0.002742
vn 0.999996 0.000000 -0.002742
vn 0.999996 0.000000 -0.002742
vn 0.999996 0.000000 -0.002741
vn 0.999996 0.000000 -0.002741
vn 0.999996 0.000000 -0.002741
vn 0.999996 0.000000 -0.002741
vn 0.999996 0.000000 -0.002741
vn 0.999996 0.000000 -0.002741
vn 0.999996 0.000000 -0.002741
vn 0.999996 0.000000 -0.002741
vn 0.999996 0.000000 -0.002742
vn 0.999996 0.000000 -0.002742
vn 0.999996 0.000000 -0.002742
vn 0.999996 0.000000 -0.002742
g LeftWall1
usemtl initialShadingGroup
f 1/1/1 2/2/2 16/3/3 15/4/4
f 2/2/5 3/5/6 17/6/7 16/3/8
f 3/5/9 4/7/10 18/8/11 17/6/12
f 4/7/13 5/9/14 19/10/15 18/8/16
f 5/9/17 6/11/18 20/12/19 19/10/20
f 6/11/21 7/13/22 21/14/23 20/12/24
f 7/13/25 8/15/26 22/16/27 21/14/28
f 8/15/29 9/17/30 23/18/31 22/16/32
f 9/17/33 10/19/34 24/20/35 23/18/36
f 10/19/37 11/21/38 25/22/39 24/20/40
f 11/21/41 12/23/42 26/24/43 25/22/44
f 12/23/45 13/25/46 27/26/47 26/24/48
f 13/25/49 14/27/50 28/28/51 27/26/52
f 14/27/53 57/29/54 58/30/55 28/28/56
f 15/4/57 16/3/58 30/31/59 29/32/60
f 16/3/61 17/6/62 31/33/63 30/31/64
f 17/6/65 18/8/66 32/34/67 31/33/68
f 18/8/69 19/10/70 33/35/71 32/34/72
f 19/10/73 20/12/74 34/36/75 33/35/76
f 20/12/77 21/14/78 35/37/79 34/36/80
f 21/14/81 22/16/82 36/38/83 35/37/84
f 22/16/85 23/18/86 37/39/87 36/38/88
f 23/18/89 24/20/90 38/40/91 37/39/92
f 24/20/93 25/22/94 39/41/95 38/40/96
f 25/22/97 26/24/98 40/42/99 39/41/100
f 26/24/101 27/26/102 41/43/103 40/42/104
f 27/26/105 28/28/106 42/44/107 41/43/108
f 28/28/109 58/30/110 59/45/111 42/44/112
f 29/32/113 30/31/114 44/46/115 43/47/116
f 30/31/117 31/33/118 45/48/119 44/46/120
f 31/33/121 32/34/122 46/49/123 45/48/124
f 32/34/125 33/35/126 47/50/127 46/49/128
f 33/35/129 34/36/130 48/51/131 47/50/132
f 34/36/133 35/37/134 49/52/135 48/51/136
f 35/37/137 36/38/138 50/53/139 49/52/140
f 36/38/141 37/39/142 51/54/143 50/53/144
f 37/39/145 38/40/146 52/55/147 51/54/148
f 38/40/149 39/41/150 53/56/151 52/55/152
f 39/41/153 40/42/154 54/57/155 53/56/156
f 40/42/157 41/43/158 55/58/159 54/57/160
f 41/43/161 42/44/162 56/59/163 55/58/164
f 42/44/165 59/45/166 60/60/167 56/59/168
