# This file uses centimeters as units for non-parametric coordinates.

mtllib LInnerWall.mtl
g default
v -0.298643 -0.797164 -0.364340
v 0.334735 -0.797164 0.409500
v 1.054100 -0.797164 1.288389
v -0.298643 2.562487 -0.364340
v 0.334735 2.562487 0.409500
v 1.054100 2.562487 1.288389
v -0.298643 5.279257 -0.364340
v 0.334735 5.279257 0.409500
v 1.054100 5.279257 1.288389
v -0.298643 8.191087 -0.364340
v 0.334735 8.191087 0.409500
v 1.054100 8.191087 1.288389
v -1.054102 -0.797164 -1.288389
v -1.054102 2.562487 -1.288389
v -1.054102 5.279257 -1.288389
v -1.054102 8.191087 -1.288389
vt 0.215720 0.035929
vt 0.243843 0.035929
vt 0.243843 0.117230
vt 0.215720 0.117230
vt 0.192086 0.035929
vt 0.192086 0.117230
vt 0.165182 0.035929
vt 0.165182 0.117230
vt 0.243843 0.181812
vt 0.215720 0.181812
vt 0.192086 0.181812
vt 0.165182 0.181812
vt 0.243843 0.245330
vt 0.215720 0.245330
vt 0.192086 0.245330
vt 0.165182 0.245330
vn 0.774196 0.000000 -0.632946
vn 0.774196 0.000000 -0.632946
vn 0.774196 0.000000 -0.632946
vn 0.774196 0.000000 -0.632946
vn 0.773842 0.000000 -0.633379
vn 0.773842 0.000000 -0.633379
vn 0.773842 0.000000 -0.633379
vn 0.773842 0.000000 -0.633379
vn 0.773839 0.000000 -0.633383
vn 0.773839 0.000000 -0.633383
vn 0.773839 0.000000 -0.633383
vn 0.773839 0.000000 -0.633383
vn 0.774196 0.000000 -0.632946
vn 0.774196 0.000000 -0.632946
vn 0.774196 0.000000 -0.632946
vn 0.774196 0.000000 -0.632946
vn 0.773842 0.000000 -0.633379
vn 0.773842 0.000000 -0.633379
vn 0.773842 0.000000 -0.633379
vn 0.773842 0.000000 -0.633379
vn 0.773839 0.000000 -0.633382
vn 0.773839 0.000000 -0.633382
vn 0.773839 0.000000 -0.633382
vn 0.773839 0.000000 -0.633382
vn 0.774196 0.000000 -0.632946
vn 0.774196 0.000000 -0.632946
vn 0.774196 0.000000 -0.632946
vn 0.774196 0.000000 -0.632946
vn 0.773842 0.000000 -0.633379
vn 0.773842 0.000000 -0.633379
vn 0.773842 0.000000 -0.633379
vn 0.773842 0.000000 -0.633379
vn 0.773839 0.000000 -0.633383
vn 0.773839 0.000000 -0.633383
vn 0.773839 0.000000 -0.633383
vn 0.773839 0.000000 -0.633383
g LInnerWall
usemtl initialShadingGroup
f 1/1/1 13/2/2 14/3/3 4/4/4
f 2/5/5 1/1/6 4/4/7 5/6/8
f 3/7/9 2/5/10 5/6/11 6/8/12
f 4/4/13 14/3/14 15/9/15 7/10/16
f 5/6/17 4/4/18 7/10/19 8/11/20
f 6/8/21 5/6/22 8/11/23 9/12/24
f 7/10/25 15/9/26 16/13/27 10/14/28
f 8/11/29 7/10/30 10/14/31 11/15/32
f 9/12/33 8/11/34 11/15/35 12/16/36
