# This file uses centimeters as units for non-parametric coordinates.

mtllib RInnerWall.mtl
g default
v 0.012840 -0.260311 -0.000136
v 1.086763 -0.260311 -0.000136
v 1.987161 -0.260311 0.000136
v 1.987161 3.099341 0.000136
v 0.012840 3.099341 -0.000136
v 1.086763 3.099341 -0.000136
v 1.987161 5.816111 0.000136
v 0.012840 5.816111 -0.000136
v 1.086763 5.816111 -0.000136
v 1.987160 8.191092 0.000136
v 0.012839 8.191092 -0.000136
v 1.086763 8.191092 -0.000136
vt 0.015919 0.042207
vt 0.042899 0.042207
vt 0.042899 0.125068
vt 0.015919 0.125068
vt 0.065511 0.042207
vt 0.065511 0.125068
vt 0.042899 0.191484
vt 0.015919 0.191484
vt 0.065511 0.191484
vt 0.042899 0.258767
vt 0.015919 0.258767
vt 0.065511 0.258767
vn 0.000000 0.000000 1.000000
vn 0.000000 0.000000 1.000000
vn 0.000000 0.000000 1.000000
vn 0.000000 0.000000 1.000000
vn -0.000303 0.000000 1.000000
vn -0.000303 0.000000 1.000000
vn -0.000303 0.000000 1.000000
vn -0.000303 0.000000 1.000000
vn 0.000000 0.000000 1.000000
vn 0.000000 0.000000 1.000000
vn 0.000000 0.000000 1.000000
vn 0.000000 0.000000 1.000000
vn -0.000303 0.000000 1.000000
vn -0.000303 0.000000 1.000000
vn -0.000303 0.000000 1.000000
vn -0.000303 0.000000 1.000000
vn 0.000000 0.000000 1.000000
vn 0.000000 0.000000 1.000000
vn 0.000000 0.000000 1.000000
vn 0.000000 0.000000 1.000000
vn -0.000303 0.000000 1.000000
vn -0.000303 0.000000 1.000000
vn -0.000303 0.000000 1.000000
vn -0.000303 0.000000 1.000000
g RInnerWall
usemtl initialShadingGroup
f 1/1/1 2/2/2 6/3/3 5/4/4
f 2/2/5 3/5/6 4/6/7 6/3/8
f 5/4/9 6/3/10 9/7/11 8/8/12
f 6/3/13 4/6/14 7/9/15 9/7/16
f 8/8/17 9/7/18 12/10/19 11/11/20
f 9/7/21 7/9/22 10/12/23 12/10/24
