# This file uses centimeters as units for non-parametric coordinates.

mtllib Level2 Celling.mtl
g default
v -29.660623 8.126769 23.782022
v -17.824855 8.126724 26.588698
v -29.660560 8.126769 15.528632
v -18.216704 8.126701 15.492914
v -5.700406 8.067375 27.177128
v 19.678615 8.494370 26.610278
v 4.776965 8.073511 27.673473
v -4.275421 8.128734 34.038401
v 4.936671 8.126767 29.331291
v -1.066649 8.128734 37.648634
v 2.703692 8.128733 39.342038
v 9.182675 8.128731 40.698407
v 6.644378 8.126766 31.319520
v 8.814438 8.126765 32.568082
v 11.752015 8.126765 32.919377
v 15.401281 8.128730 40.031298
v 15.281527 8.126764 32.141563
v 21.113317 8.128728 36.965034
v 18.881812 8.126762 29.831722
v 31.376512 8.128727 27.134615
v 26.875812 8.126114 22.727102
v 37.283240 8.128726 22.126049
v 32.698762 8.125750 15.696119
v 26.359598 8.450606 15.867800
v 25.746328 8.123754 22.200809
v 19.145964 8.390393 13.457958
v 23.511361 8.126629 -0.216007
v -13.628760 8.126711 4.825915
v -25.048066 8.126768 -17.450537
v -31.168970 8.126769 -7.222173
vt 0.000193 0.283883
vt 0.174441 0.232521
vt 0.177517 0.398301
vt 0.006825 0.406964
vt 0.733482 0.202081
vt 0.736353 0.398593
vt 0.812425 0.599054
vt 0.254512 0.553681
vt 0.102085 0.895053
vt 0.002602 0.747422
vt 0.354662 0.213610
vt 0.510436 0.197667
vt 0.370393 0.110074
vt 0.511546 0.172798
vt 0.415369 0.053623
vt 0.470273 0.025336
vt 0.565856 -0.000055
vt 0.535455 0.141804
vt 0.610412 0.113906
vt 0.566848 0.121469
vt 0.659136 0.004934
vt 0.663714 0.122708
vt 0.746778 0.046056
vt 0.719282 0.154241
vt 0.907780 0.184313
vt 0.844269 0.253722
vt 0.999974 0.254127
vt 0.936923 0.353789
vt 0.842141 0.356648
vt 0.827840 0.262568
vn 0.000005 1.000000 -0.000001
vn -0.007116 0.999970 -0.002984
vn -0.006099 0.999961 -0.006463
vn 0.000005 1.000000 -0.000001
vn -0.008544 0.999958 -0.003370
vn -0.006466 0.999942 -0.008655
vn -0.003054 0.999962 -0.008117
vn -0.001906 0.999985 -0.005068
vn 0.000002 1.000000 0.000001
vn 0.000002 1.000000 0.000001
vn -0.006972 0.990760 0.135446
vn -0.006414 0.993393 0.114583
vn -0.001396 0.999979 -0.006398
vn -0.001519 0.999975 -0.006885
vn 0.000116 1.000000 -0.000153
vn 0.000100 1.000000 -0.000178
vn 0.000030 1.000000 -0.000232
vn 0.000083 1.000000 -0.000210
vn -0.000008 1.000000 -0.000254
vn 0.000077 1.000000 -0.000245
vn -0.000078 1.000000 -0.000250
vn -0.000099 1.000000 -0.000247
vn -0.000183 1.000000 -0.000258
vn -0.000198 1.000000 -0.000264
vn -0.000239 1.000000 -0.000280
vn 0.006702 0.999952 0.007193
vn -0.000268 1.000000 -0.000291
vn 0.008799 0.999916 0.009468
vn 0.029419 0.999359 0.020384
vn 0.029047 0.999385 0.019621
vn 0.025100 0.999618 0.011537
vn 0.025100 0.999618 0.011537
s 1
g polySurface5
usemtl lambert2SG
f 1/1/1 2/2/2 4/3/3 3/4/4
f 4/3/3 2/2/2 6/5/5 26/6/6
f 4/3/3 26/6/6 27/7/7 28/8/8
f 28/8/8 27/7/7 29/9/9 30/10/10
f 6/5/5 2/2/2 5/11/11 7/12/12
f 7/12/12 5/11/11 8/13/13 9/14/14
f 9/14/14 8/13/13 10/15/15 11/16/16
f 9/14/14 11/16/16 12/17/17 13/18/18
f 13/18/18 12/17/17 15/19/19 14/20/20
f 15/19/19 12/17/17 16/21/21 17/22/22
f 17/22/22 16/21/21 18/23/23 19/24/24
f 19/24/24 18/23/23 20/25/25 21/26/26
f 21/26/26 20/25/25 22/27/27 23/28/28
f 21/26/26 23/28/28 24/29/29 25/30/30
f 25/30/30 24/29/29 26/6/31 6/5/32
